STARTFONT 2.1
FONT -Monotype-Book Antiqua-Regular-R-Normal--50-360-100-100-P-272-iso8859-4
SIZE 36 100 100
FONTBOUNDINGBOX 63 63 -8 -15

STARTPROPERTIES 24
FOUNDRY "Monotype"
FAMILY_NAME "Book Antiqua"
WEIGHT_NAME "Regular"
SLANT "R"
SETWIDTH_NAME "Normal"
ADD_STYLE_NAME ""
PIXEL_SIZE 50
POINT_SIZE 360
RESOLUTION_X 100
RESOLUTION_Y 100
SPACING "P"
AVERAGE_WIDTH 272
CHARSET_REGISTRY "iso8859"
CHARSET_ENCODING "4"
FACE_NAME "Book Antiqua ISO Latin4"
_DEC_DEVICE_FONTNAMES "PS=bookantiqua-lat4"
COPYRIGHT "Copyright (c) 1993 Monotype Typography Ltd."
CAP_HEIGHT 46
X_HEIGHT 30
WEIGHT 10
QUAD_WIDTH 31
DEFAULT_CHAR 160
FONT_DESCENT 17
FONT_ASCENT 49
ENDPROPERTIES

CHARS 191

STARTCHAR space
ENCODING 32
SWIDTH 250 0
DWIDTH 13 0
BBX 0 0 0 0
BITMAP
ENDCHAR

STARTCHAR exclam
ENCODING 33
SWIDTH 278 0
DWIDTH 14 0
BBX 8 35 3 -1
BITMAP
0E
3E
7E
7E
7E
3E
3E
3C
3C
3C
3C
3C
3C
3C
3C
3C
1C
1C
18
18
18
18
18
18
18
00
00
00
00
18
3C
7E
7E
3C
18
ENDCHAR

STARTCHAR quotedbl
ENCODING 34
SWIDTH 371 0
DWIDTH 19 0
BBX 17 14 1 21
BITMAP
381C00
7C3E00
7C3E00
7C3E00
7C3E00
7C3E00
381E00
381C00
381C00
381C00
381C00
381C00
100800
100800
ENDCHAR

STARTCHAR numbersign
ENCODING 35
SWIDTH 606 0
DWIDTH 30 0
BBX 30 34 0 0
BITMAP
001C0380
003C0380
00380780
00380780
00380700
00380700
00380700
00780700
00700700
00700F00
1FFFFFF8
1FFFFFF8
1FFFFFF8
00700E00
00F00E00
00E01E00
00E01E00
00E01C00
00E01C00
00E01C00
3FFFFFE0
3FFFFFE0
3FFFFFE0
01C03800
01C03800
01C03800
01C03800
03C03800
03803800
03807800
03807000
03807000
03807000
07807000
ENDCHAR

STARTCHAR dollar
ENCODING 36
SWIDTH 500 0
DWIDTH 25 0
BBX 25 43 0 -5
BITMAP
00180000
00180000
00180000
00180000
00FFC000
03FFF800
0F187800
1E183000
1C183000
3C181000
38181000
78181000
78180000
78180000
78180000
7C180000
7E180000
3F180000
3FF80000
1FFFE000
0FFFF000
01FFFC00
001FFC00
0018FE00
00183E00
00181E00
00181E00
00181E00
20181E00
20181E00
20181C00
20181C00
20183800
70183800
7818F000
7E19E000
1FFF8000
03FC0000
00180000
00180000
00180000
00180000
00180000
ENDCHAR

STARTCHAR percent
ENCODING 37
SWIDTH 840 0
DWIDTH 42 0
BBX 34 39 4 -2
BITMAP
0000004000
03F0006000
0E38006000
1C1C00C000
1C0E00C000
380E018000
380F018000
780F030000
780F030000
780F060000
780F0E0000
380E0C0000
380E1C0000
380C180000
1C1C300000
0E38300000
07E0600000
0000600000
0000C00000
0000C00000
0001800000
000181F800
0003071C00
00030E0E00
00060E0700
00061C0700
000C1C0780
000C3C0780
00183C0780
00183C0780
00303C0780
00303C0700
00601C0700
00601C0600
00C00E0E00
0080071C00
018003F000
0300000000
0300000000
ENDCHAR

STARTCHAR ampersand
ENCODING 38
SWIDTH 778 0
DWIDTH 39 0
BBX 38 36 1 -1
BITMAP
0001C00000
0007F00000
000FF00000
0018F80000
0030780000
0070780000
0070780000
00F0700000
00F0700000
00F0E00000
00F0E00000
00F1C00000
007B800000
007F000000
007C000000
007C03FFF0
00FE07FFF0
03DE07FFF0
079F007810
0F0F803800
0E07803800
1E07C03800
1C03E03800
3C01F03800
3C01F87000
3C00F87000
3E007CE000
3E003EC000
3E001F8000
1F000FC000
1F800FF000
1FC01FFC08
0FF079FFF0
07FFF0FFE0
01FFC03FC0
007E000F80
ENDCHAR

STARTCHAR quoteright
ENCODING 39
SWIDTH 278 0
DWIDTH 14 0
BBX 13 13 -1 23
BITMAP
00E0
03E0
03C0
07C0
0780
0780
0700
0F00
0E00
1C00
1800
3000
2000
ENDCHAR

STARTCHAR parenleft
ENCODING 40
SWIDTH 333 0
DWIDTH 17 0
BBX 15 49 2 -13
BITMAP
000C
0018
0038
0070
00E0
00E0
01C0
03C0
0380
0780
0700
0F00
0F00
0E00
1E00
1E00
1E00
1E00
3C00
3C00
3C00
3C00
3C00
3C00
3C00
3C00
3C00
3C00
3C00
3C00
3E00
1E00
1E00
1E00
1E00
0E00
0F00
0F00
0700
0780
0380
03C0
01C0
00E0
00E0
0070
0038
0018
000C
ENDCHAR

STARTCHAR parenright
ENCODING 41
SWIDTH 333 0
DWIDTH 17 0
BBX 15 49 0 -13
BITMAP
2000
3000
3800
1C00
0E00
0F00
0700
0780
0380
03C0
01C0
01E0
01E0
00F0
00F0
00F0
00F0
00F8
0078
0078
0078
0078
0078
0078
0078
0078
0078
0078
0078
0078
0078
0078
00F0
00F0
00F0
00F0
00E0
01E0
01C0
03C0
0380
0380
0700
0E00
0E00
1C00
3800
3000
6000
ENDCHAR

STARTCHAR asterisk
ENCODING 42
SWIDTH 389 0
DWIDTH 19 0
BBX 21 16 -1 18
BITMAP
007800
007800
007000
007000
183040
3E31E0
3FB7E0
3FFFE0
007800
00F800
01DC00
03DE00
078F00
0F0F80
070700
020600
ENDCHAR

STARTCHAR plus
ENCODING 43
SWIDTH 606 0
DWIDTH 30 0
BBX 27 25 2 5
BITMAP
000E0000
000E0000
000E0000
000E0000
000E0000
000E0000
000E0000
000E0000
000E0000
000E0000
000E0000
7FFFFFC0
7FFFFFC0
7FFFFFC0
000E0000
000E0000
000E0000
000E0000
000E0000
000E0000
000E0000
000E0000
000E0000
000E0000
000E0000
ENDCHAR

STARTCHAR comma
ENCODING 44
SWIDTH 250 0
DWIDTH 13 0
BBX 13 14 -1 -7
BITMAP
0020
01E0
03E0
03C0
07C0
0780
0780
0700
0F00
0E00
1C00
1800
3800
7000
ENDCHAR

STARTCHAR minus
ENCODING 45
SWIDTH 606 0
DWIDTH 30 0
BBX 28 3 1 16
BITMAP
3FFFFFC0
3FFFFFC0
3FFFFFC0
ENDCHAR

STARTCHAR period
ENCODING 46
SWIDTH 250 0
DWIDTH 13 0
BBX 8 6 2 -1
BITMAP
18
3C
7E
7E
3C
18
ENDCHAR

STARTCHAR slash
ENCODING 47
SWIDTH 606 0
DWIDTH 30 0
BBX 27 47 0 -11
BITMAP
00000780
00000700
00000F00
00000E00
00001E00
00001E00
00001C00
00003C00
00003800
00007800
00007000
00007000
0000F000
0000E000
0001E000
0001C000
0001C000
0003C000
00038000
00078000
00070000
000F0000
000E0000
000E0000
001E0000
001C0000
003C0000
00380000
00380000
00700000
00700000
00F00000
00E00000
01E00000
01C00000
01C00000
03C00000
03800000
07800000
07000000
07000000
0E000000
0E000000
1E000000
1C000000
3C000000
3C000000
ENDCHAR

STARTCHAR zero
ENCODING 48
SWIDTH 500 0
DWIDTH 25 0
BBX 26 36 -1 -1
BITMAP
003F8000
00FFE000
01C0F000
03807800
07007C00
0F003C00
0E003E00
1E001E00
1E001E00
1E001F00
1E001F00
3C000F00
3C000F00
3C000F00
3C000F00
3C000F00
3C000F00
3C000F00
3C000F00
3C000F00
3C000F00
3C000F00
3C000F00
3E000F00
3E000F00
3E001E00
1E001E00
1E001E00
1E001C00
1F001C00
0F003C00
0F803800
07807000
03E0E000
01FFC000
003E0000
ENDCHAR

STARTCHAR one
ENCODING 49
SWIDTH 500 0
DWIDTH 25 0
BBX 23 35 0 0
BITMAP
000200
000E00
007E00
01FE00
0FFE00
3E1E00
381E00
201E00
001E00
001E00
001E00
001E00
001E00
001E00
001E00
001E00
001E00
001E00
001E00
001E00
001E00
001E00
001E00
001E00
001E00
001E00
001E00
001E00
001E00
001E00
001E00
003E00
003F00
0FFFFC
0FFFFC
ENDCHAR

STARTCHAR two
ENCODING 50
SWIDTH 500 0
DWIDTH 25 0
BBX 26 35 -1 0
BITMAP
007F0000
03FFC000
07FFF000
0FFFF800
0F03FC00
0C00FC00
0C007C00
18007E00
18003E00
18003E00
10003E00
00003E00
00003E00
00003C00
00003C00
00007800
00007800
0000F000
0000E000
0001C000
00038000
00070000
000E0000
000C0000
00180000
00300000
00600000
00C00000
01800000
03000000
06000000
0FFFFF80
1FFFFF80
3FFFFF80
3FFFFF80
ENDCHAR

STARTCHAR three
ENCODING 51
SWIDTH 500 0
DWIDTH 25 0
BBX 25 36 -1 -1
BITMAP
00FF0000
03FFC000
07FFE000
0F87F000
1E01F800
1C00F800
1800F800
18007800
10007800
00007800
00007000
00007000
0000E000
0000C000
00018000
00070000
00FFF000
00FFF800
0080FC00
00007E00
00003E00
00001F00
00001F00
00001F00
00001F00
00001F00
00001E00
20001E00
30001C00
30003C00
18003800
18007000
1C00E000
1F03C000
1FFF0000
07FC0000
ENDCHAR

STARTCHAR four
ENCODING 52
SWIDTH 500 0
DWIDTH 25 0
BBX 26 35 -1 0
BITMAP
00002000
0000E000
0001E000
0003E000
0007E000
0007E000
000DE000
000DE000
0019E000
0031E000
0031E000
0061E000
00C1E000
00C1E000
0181E000
0181E000
0301E000
0601E000
0601E000
0C01E000
0C01E000
1801E000
3801E000
3FFFFF80
7FFFFF80
7FFFFF80
0001E000
0001E000
0001E000
0001E000
0001E000
0001E000
0003F000
001FFE00
007FFF80
ENDCHAR

STARTCHAR five
ENCODING 53
SWIDTH 500 0
DWIDTH 25 0
BBX 26 35 -1 -1
BITMAP
07FFFE00
07FFFE00
07FFFE00
07FFFE00
06000000
06000000
06000000
06000000
06000000
06000000
06000000
063FC000
06FFF000
07FFF800
07C3FC00
07007E00
06003E00
00001F00
00001F00
00001F00
00000F00
00000F00
00000F00
00000F00
00000F00
00000E00
20001E00
30001C00
10001C00
18003800
1C007000
0E01E000
0FFF8000
07FE0000
01F00000
ENDCHAR

STARTCHAR six
ENCODING 54
SWIDTH 500 0
DWIDTH 25 0
BBX 25 36 0 -1
BITMAP
00007000
0001F000
00078000
001E0000
00380000
00700000
01E00000
01C00000
03800000
07800000
0F000000
0F000000
1E000000
1E000000
1E1F8000
3E3FF000
3CFFF800
3D81FC00
7F00FC00
7E007E00
7C003E00
7C003E00
7C001E00
7C001E00
7C001E00
7C001E00
3C001E00
3C001E00
3C001C00
3E003C00
1E003800
0F007800
0F80F000
07C1E000
01FF8000
007C0000
ENDCHAR

STARTCHAR seven
ENCODING 55
SWIDTH 500 0
DWIDTH 25 0
BBX 25 34 1 0
BITMAP
7FFFFF00
7FFFFF00
7FFFFE00
7FFFFE00
70000C00
60001800
60003800
60003000
60007000
60006000
0000E000
0000C000
0001C000
00038000
00038000
00070000
00070000
000E0000
001E0000
001C0000
00380000
00380000
00780000
00F00000
00F00000
01E00000
01E00000
03C00000
07C00000
07800000
0F800000
1F000000
1F000000
3F000000
ENDCHAR

STARTCHAR eight
ENCODING 56
SWIDTH 500 0
DWIDTH 25 0
BBX 25 36 0 -1
BITMAP
007F0000
01FFC000
0781F000
0F007800
1E007800
1C003C00
1C003C00
3C003C00
3C003C00
3C003800
3E003800
1F007000
1F807000
0FE0E000
0FFB8000
07FF0000
01FF8000
00FFE000
039FF000
0707F800
0E01FC00
1C00FE00
3C007E00
38003E00
38001E00
78001E00
78001E00
78001E00
78001C00
38001C00
3C003800
1C003000
1E007000
0F81C000
03FF8000
00FC0000
ENDCHAR

STARTCHAR nine
ENCODING 57
SWIDTH 500 0
DWIDTH 25 0
BBX 25 36 0 -1
BITMAP
003F0000
01FFE000
03C1F000
07807800
0F007C00
1E003C00
1E001E00
1C001E00
3C001E00
3C001E00
3C001F00
3C001F00
3C001F00
3E001F00
3E001F00
3E003F00
1F003F00
1F807F00
0FC0DE00
07FF9E00
03FF1E00
00FC3E00
00003C00
00003C00
00007800
00007800
0000F000
0000E000
0001E000
0003C000
00078000
001F0000
003C0000
00F80000
0FE00000
07000000
ENDCHAR

STARTCHAR colon
ENCODING 58
SWIDTH 250 0
DWIDTH 13 0
BBX 8 24 2 -1
BITMAP
18
3C
7E
7E
3C
18
00
00
00
00
00
00
00
00
00
00
00
00
18
3C
7E
7E
3C
18
ENDCHAR

STARTCHAR semicolon
ENCODING 59
SWIDTH 250 0
DWIDTH 13 0
BBX 13 30 -1 -7
BITMAP
0180
03C0
07E0
07E0
03C0
0180
0000
0000
0000
0000
0000
0000
0000
0000
0000
0000
0020
01E0
03E0
07C0
07C0
0780
0780
0F00
0F00
0E00
1C00
1800
3800
7000
ENDCHAR

STARTCHAR less
ENCODING 60
SWIDTH 606 0
DWIDTH 30 0
BBX 28 24 1 5
BITMAP
000001C0
000007C0
00001FC0
00007F80
0001FE00
000FF800
003FC000
00FF0000
03FC0000
0FF00000
3FC00000
3F000000
3F000000
3FE00000
0FF80000
01FE0000
007F8000
001FE000
0007F800
0001FF00
00003FC0
00000FC0
000003C0
000000C0
ENDCHAR

STARTCHAR equal
ENCODING 61
SWIDTH 606 0
DWIDTH 30 0
BBX 28 11 1 12
BITMAP
3FFFFFC0
3FFFFFC0
3FFFFFC0
00000000
00000000
00000000
00000000
00000000
3FFFFFC0
3FFFFFC0
3FFFFFC0
ENDCHAR

STARTCHAR greater
ENCODING 62
SWIDTH 606 0
DWIDTH 30 0
BBX 28 25 1 5
BITMAP
20000000
38000000
3E000000
3F800000
1FF00000
03FC0000
00FF0000
003FC000
000FF000
0003FE00
0000FF80
00001FC0
000007C0
00000FC0
00003FC0
0000FF00
0003FC00
001FE000
007F8000
01FE0000
07F80000
1FE00000
3F000000
3C000000
30000000
ENDCHAR

STARTCHAR question
ENCODING 63
SWIDTH 444 0
DWIDTH 22 0
BBX 20 36 1 -1
BITMAP
03FC00
0FFF00
1FFF80
1E3FC0
180FC0
3007E0
3003E0
2003E0
0003E0
0003E0
0003C0
0003C0
0007C0
000780
000F00
001E00
003C00
003800
007000
00E000
00C000
01C000
018000
018000
018000
00C000
000000
000000
000000
000000
00C000
01E000
03F000
03F000
01E000
00C000
ENDCHAR

STARTCHAR at
ENCODING 64
SWIDTH 747 0
DWIDTH 37 0
BBX 39 40 -1 -5
BITMAP
0000FFC000
0007C07000
001C001C00
0030000600
00E0000100
01C0000080
03800000C0
0300000040
0600000020
0E00000020
0C001E3030
1800617010
1800C17010
300180F010
300300E010
300700E010
300E01E010
600E01C010
601C01C030
601C01C030
603803C020
6038038060
6038078040
60780F80C0
60780F0080
2078170180
303C670300
303FC70E0C
301F87F808
180C01E018
1800000010
0C00000030
0E00000060
06000000C0
0300000180
0180000300
00E0000E00
0038003800
000F01E000
0001FF0000
ENDCHAR

STARTCHAR A
ENCODING 65
SWIDTH 778 0
DWIDTH 39 0
BBX 40 35 -1 0
BITMAP
00000C0000
00001C0000
00001E0000
00001E0000
00003F0000
00003F0000
00007F0000
00006F8000
0000EF8000
0000C7C000
0001C7C000
000183E000
000183E000
000381E000
000301F000
000701F000
000600F800
000E00F800
000C007C00
001C007C00
001C007C00
001FFFFE00
003FFFFE00
0030001F00
0070001F00
0070000F80
00E0000F80
00E0000F80
01C00007C0
01C00007C0
01C00003E0
03800003E0
07800003F0
3FF8003FFE
3FF8003FFE
ENDCHAR

STARTCHAR B
ENCODING 66
SWIDTH 611 0
DWIDTH 31 0
BBX 31 34 0 0
BITMAP
3FFFFC00
3FFFFF80
03E01FC0
03E00FE0
03E007E0
03E003E0
03E003E0
03E003E0
03E003E0
03E003C0
03E003C0
03E00780
03E00F00
03E03C00
03FFE000
03FFFF00
03E01FC0
03E007E0
03E003F0
03E001F0
03E000F8
03E000F8
03E000F8
03E000F8
03E000F8
03E000F8
03E001F0
03E001F0
03E003E0
03E003C0
03E00F80
03E03F00
07FFFC00
0FFFE000
ENDCHAR

STARTCHAR C
ENCODING 67
SWIDTH 709 0
DWIDTH 35 0
BBX 36 36 0 -1
BITMAP
00007FF000
0007FFFF80
001FC03FC0
007E0007C0
00F8000180
01F0000180
03E0000180
07C0000180
0F80000180
0F80000000
1F00000000
1F00000000
1F00000000
3E00000000
3E00000000
3E00000000
3E00000000
3E00000000
3E00000000
3E00000000
3E00000000
3F00000000
1F00000000
1F00000000
1F80000000
0F80000000
0FC0000000
07E0000000
07F0000000
03F8000000
01FC000040
00FF0000C0
003FC007C0
000FFFFF00
0003FFFC00
00003F8000
ENDCHAR

STARTCHAR D
ENCODING 68
SWIDTH 774 0
DWIDTH 39 0
BBX 39 34 0 0
BITMAP
3FFFFF8000
3FFFFFF800
03E003FC00
03E0007F00
03E0001F80
03E0000FC0
03E00007E0
03E00003E0
03E00003F0
03E00001F0
03E00001F8
03E00001F8
03E00000F8
03E00000F8
03E00000F8
03E00000F8
03E00000F8
03E00000F8
03E00000F8
03E00000F8
03E00000F0
03E00001F0
03E00001F0
03E00001E0
03E00003E0
03E00003C0
03E00007C0
03E0000F80
03E0001F00
03E0003E00
03E000F800
03E007F000
0FFFFFC000
0FFFFC0000
ENDCHAR

STARTCHAR E
ENCODING 69
SWIDTH 611 0
DWIDTH 31 0
BBX 30 34 0 0
BITMAP
7FFFFFF0
3FFFFFE0
03E001E0
03E00060
03E00060
03E00060
03E00060
03E00000
03E00000
03E00000
03E00000
03E00300
03E00300
03E00300
03E00300
03FFFF00
03FFFF00
03E00700
03E00300
03E00300
03E00300
03E00300
03E00000
03E00000
03E00000
03E00000
03E00030
03E00030
03E00030
03E00030
03E00030
03E000F0
07FFFFF0
3FFFFFF0
ENDCHAR

STARTCHAR F
ENCODING 70
SWIDTH 556 0
DWIDTH 28 0
BBX 29 34 0 0
BITMAP
7FFFFFE0
0FFFFFE0
03E001C0
03E000C0
03E000C0
03E000C0
03E00040
03E00000
03E00000
03E00000
03E00000
03E00300
03E00300
03E00300
03E00300
03FFFF00
03FFFF00
03E00700
03E00300
03E00300
03E00300
03E00300
03E00000
03E00000
03E00000
03E00000
03E00000
03E00000
03E00000
03E00000
03E00000
03F00000
7FFF0000
7FFF0000
ENDCHAR

STARTCHAR G
ENCODING 71
SWIDTH 763 0
DWIDTH 38 0
BBX 39 36 -1 -1
BITMAP
00007FF800
0007FFFF80
001FC03FF0
007E0003F0
00F80000E0
01F0000060
03E0000060
07C0000060
0780000060
0F80000060
0F00000000
1F00000000
1F00000000
1E00000000
3E00000000
3E00000000
3E00000000
3E00000000
3E00000000
3E00000000
3E00000000
3F00000000
3F00007FFC
1F000003F0
1F800001F0
1F800001F0
0FC00001F0
0FC00001F0
07E00001F0
03F00001F0
01F80001F0
00FC0001F0
007F0003F0
003FE01FE0
0007FFFF00
0000FFF000
ENDCHAR

STARTCHAR H
ENCODING 72
SWIDTH 832 0
DWIDTH 42 0
BBX 42 34 0 0
BITMAP
7FFF003FFF80
7FFF003FFF80
03E00001F000
03E00001F000
03E00001F000
03E00001F000
03E00001F000
03E00001F000
03E00001F000
03E00001F000
03E00001F000
03E00001F000
03E00001F000
03E00001F000
03E00001F000
03FFFFFFF000
03FFFFFFF000
03E00001F000
03E00001F000
03E00001F000
03E00001F000
03E00001F000
03E00001F000
03E00001F000
03E00001F000
03E00001F000
03E00001F000
03E00001F000
03E00001F000
03E00001F000
03E00001F000
03F00001F000
7FFF003FFF80
7FFF003FFF80
ENDCHAR

STARTCHAR I
ENCODING 73
SWIDTH 337 0
DWIDTH 17 0
BBX 17 34 0 0
BITMAP
3FFF00
3FFF00
03E000
03E000
03E000
03E000
03E000
03E000
03E000
03E000
03E000
03E000
03E000
03E000
03E000
03E000
03E000
03E000
03E000
03E000
03E000
03E000
03E000
03E000
03E000
03E000
03E000
03E000
03E000
03E000
03E000
03F000
3FFF00
3FFF00
ENDCHAR

STARTCHAR J
ENCODING 74
SWIDTH 333 0
DWIDTH 17 0
BBX 19 44 -2 -10
BITMAP
1FFFC0
1FFFC0
00F800
00F800
00F800
00F800
00F800
00F800
00F800
00F800
00F800
00F800
00F800
00F800
00F800
00F800
00F800
00F800
00F800
00F800
00F800
00F800
00F800
00F800
00F800
00F800
00F800
00F800
00F800
00F800
00F800
00F800
00F800
00F800
00F000
00F000
00F000
00E000
00E000
01C000
238000
3F0000
3E0000
3C0000
ENDCHAR

STARTCHAR K
ENCODING 75
SWIDTH 726 0
DWIDTH 36 0
BBX 38 34 0 0
BITMAP
3FFF003FE0
3FFF003FE0
03E0003C00
03E0007800
03E000F000
03E001C000
03E0038000
03E0070000
03E00E0000
03E01C0000
03E0380000
03E0700000
03E0E00000
03E3800000
03E7000000
03EF000000
03FF800000
03FFC00000
03E7E00000
03E3F00000
03E1F80000
03E0FE0000
03E07F0000
03E03F8000
03E01FC000
03E00FE000
03E007F000
03E003F800
03E001FC00
03E0007E00
03E0003F80
03E0001FC0
3FFF000FF0
3FFF0007F0
ENDCHAR

STARTCHAR L
ENCODING 76
SWIDTH 611 0
DWIDTH 31 0
BBX 31 34 0 0
BITMAP
7FFF0000
7FFF0000
03E00000
03E00000
03E00000
03E00000
03E00000
03E00000
03E00000
03E00000
03E00000
03E00000
03E00000
03E00000
03E00000
03E00000
03E00000
03E00000
03E00000
03E00000
03E00000
03E00000
03E00000
03E00000
03E00000
03E00008
03E00008
03E00018
03E00018
03E00018
03E00018
03E001F8
0FFFFFF8
0FFFFFF0
ENDCHAR

STARTCHAR M
ENCODING 77
SWIDTH 946 0
DWIDTH 47 0
BBX 48 34 0 0
BITMAP
7FE0000007FE
7FE000000FFE
07F000000FC0
03F000000FC0
03F800001FC0
03F800001FC0
03FC00003FC0
037C000037C0
037E000077C0
033E000067C0
033F0000E7C0
031F0000C7C0
031F8001C7C0
030F800187C0
030FC00387C0
0307C00307C0
0307E00707C0
0303E00607C0
0303F00E07C0
0301F00C07C0
0301F81C07C0
0300F81807C0
0300FC3807C0
03007C3007C0
03007E7007C0
03003E6007C0
03001FE007C0
03001FC007C0
03000FC007C0
03000F8007C0
0300078007C0
0780070007E0
7FF807007FFE
7FF802007FFE
ENDCHAR

STARTCHAR N
ENCODING 78
SWIDTH 831 0
DWIDTH 42 0
BBX 42 34 0 0
BITMAP
7FC00007FF80
7FE00007FF80
07F000007800
03F800003000
03F800003000
03FC00003000
037E00003000
033F00003000
031F80003000
031FC0003000
030FC0003000
0307E0003000
0303F0003000
0301F8003000
0300FC003000
03007E003000
03007E003000
03003F003000
03001F803000
03000FC03000
030007E03000
030003F03000
030003F83000
030001F83000
030000FC3000
0300007E3000
0300003F3000
0300001FB000
0300000FF000
03000007F000
03800003F000
07800003F000
7FF80001F000
7FF80000F800
ENDCHAR

STARTCHAR O
ENCODING 79
SWIDTH 786 0
DWIDTH 39 0
BBX 40 36 0 -1
BITMAP
0001FFC000
000FFFF800
003E01FE00
00F0003F00
01E0001F80
03C0000FC0
07800007E0
0F000003F0
1F000001F0
1E000001F8
3E000000F8
3E000000F8
3C000000FC
3C0000007C
7C0000007C
7C0000007C
7C0000007C
7C0000007C
7C0000007C
7C0000007C
7C0000007C
7E0000007C
7E00000078
3E000000F8
3E000000F8
3F000000F0
1F000000F0
1F800001E0
0FC00001C0
0FC0000380
07E0000780
03F8000E00
01FC003C00
007F80F800
001FFFE000
0003FE0000
ENDCHAR

STARTCHAR P
ENCODING 80
SWIDTH 604 0
DWIDTH 30 0
BBX 32 34 0 0
BITMAP
7FFFFE00
7FFFFFC0
03F00FF0
03E003F8
03E001F8
03E000FC
03E0007C
03E0007C
03E0007C
03E0007C
03E0007C
03E00078
03E000F8
03E000F0
03E001E0
03E007C0
03E3FF00
03E1F800
03E00000
03E00000
03E00000
03E00000
03E00000
03E00000
03E00000
03E00000
03E00000
03E00000
03E00000
03E00000
03E00000
03E00000
7FFF0000
7FFF0000
ENDCHAR

STARTCHAR Q
ENCODING 81
SWIDTH 786 0
DWIDTH 39 0
BBX 41 44 -1 -9
BITMAP
0000FFE00000
000FFFFC0000
003F00FF0000
007C001F8000
00F0000FC000
01E00007E000
03C00003F000
07800001F800
0F800000F800
0F000000FC00
1F0000007C00
1F0000007C00
1E0000007E00
3E0000003E00
3E0000003E00
3E0000003E00
3E0000003E00
3E0000003E00
3E0000003E00
3E0000003E00
3E0000003E00
3F0000003E00
3F0000003C00
1F0000007C00
1F8000007C00
1F8000007800
0F8000007800
0FC00000F000
07E00000E000
07E00001E000
03F00003C000
01FC00078000
00FE001E0000
003FC07C0000
000FFFF00000
0003FF800000
00001E000000
00007F800000
0000FFF00000
0003FFFE0000
000201FFC200
0000007FFE00
0000000FF800
00000000F000
ENDCHAR

STARTCHAR R
ENCODING 82
SWIDTH 668 0
DWIDTH 33 0
BBX 35 34 0 0
BITMAP
3FFFFE0000
3FFFFFC000
03F00FE000
03E003F000
03E001F800
03E001F800
03E000F800
03E000F800
03E000F800
03E000F800
03E000F000
03E001F000
03E001E000
03E003C000
03E00F8000
03E03E0000
03E7F00000
03E3F00000
03E1F80000
03E0F80000
03E0FC0000
03E07E0000
03E03F0000
03E01F8000
03E00FC000
03E00FC000
03E007E000
03E003F000
03E001F800
03E001F800
03E000FC00
03E0007E00
3FFF003F80
3FFF001F80
ENDCHAR

STARTCHAR S
ENCODING 83
SWIDTH 525 0
DWIDTH 26 0
BBX 28 36 -1 -1
BITMAP
003FE000
01FFFE00
03E03F00
07800F00
0F000700
1E000200
1E000200
3C000200
3C000200
3C000000
3C000000
3C000000
3E000000
3F000000
1F800000
1FF80000
0FFFF800
07FFFE00
01FFFF00
001FFF80
00003FC0
00000FC0
000007C0
000007C0
000003C0
000003C0
000003C0
300003C0
30000380
30000780
30000700
38000E00
3C003C00
3F80F800
1FFFE000
01FF0000
ENDCHAR

STARTCHAR T
ENCODING 84
SWIDTH 613 0
DWIDTH 31 0
BBX 32 34 -1 0
BITMAP
3FFFFFFE
3FFFFFFE
3803E00E
3003E006
3003E006
3003E006
3003E006
3003E004
0003E000
0003E000
0003E000
0003E000
0003E000
0003E000
0003E000
0003E000
0003E000
0003E000
0003E000
0003E000
0003E000
0003E000
0003E000
0003E000
0003E000
0003E000
0003E000
0003E000
0003E000
0003E000
0003E000
0003E000
007FFF00
007FFF00
ENDCHAR

STARTCHAR U
ENCODING 85
SWIDTH 778 0
DWIDTH 39 0
BBX 40 35 -1 -1
BITMAP
3FFF001FFE
3FFF001FFE
03E00001E0
03E00000E0
03E00000C0
03E00000C0
03E00000C0
03E00000C0
03E00000C0
03E00000C0
03E00000C0
03E00000C0
03E00000C0
03E00000C0
03E00000C0
03E00000C0
03E00000C0
03E00000C0
03E00000C0
03E00000C0
03E00000C0
03E00000C0
03E00000C0
03E00000C0
03E00000C0
03E00000C0
03E00001C0
01F0000180
01F0000380
01F8000780
00FC000F00
007F807E00
003FFFFC00
000FFFF000
0001FF8000
ENDCHAR

STARTCHAR V
ENCODING 86
SWIDTH 722 0
DWIDTH 36 0
BBX 38 35 -1 -1
BITMAP
3FFE003FF8
3FFE003FF8
07E00003C0
07E0000380
03E0000380
03E0000300
01F0000700
01F0000600
01F8000600
00F8000E00
00F8000C00
007C001C00
007C001800
007C001800
003E003000
003E003000
001F007000
001F006000
001F006000
000F80C000
000F80C000
0007C1C000
0007C18000
0007C38000
0003E30000
0003E30000
0001F70000
0001F60000
0001FE0000
0000FC0000
0000FC0000
00007C0000
0000780000
0000780000
0000380000
ENDCHAR

STARTCHAR W
ENCODING 87
SWIDTH 1000 0
DWIDTH 50 0
BBX 52 35 -1 -1
BITMAP
3FFC003000FFE0
3FFC003000FFE0
07C00078000F00
07C00078000E00
07C000F8000E00
03C000FC000C00
03E000FC000C00
03E001FC001C00
03E001BE001800
01E001BE001800
01F003BE001800
01F0031F003800
01F0071F003000
00F0060F003000
00F0060F807000
00F80C0F806000
00F80C07C06000
00F81C07C0E000
00781807C0C000
007C3803E0C000
007C3003E0C000
007C3001E18000
003C7001F18000
003C6001F18000
003EE000F38000
003EC000FB0000
001EC000FB0000
001FC0007B0000
001F80007E0000
001F80003E0000
000F00003E0000
000F00003E0000
000F00001C0000
000E00001C0000
000E00001C0000
ENDCHAR

STARTCHAR X
ENCODING 88
SWIDTH 667 0
DWIDTH 33 0
BBX 35 34 -1 0
BITMAP
03C0000F80
3FE0001F80
07F0003C00
01F8003800
00F8007000
00FC00E000
007E00E000
003E01C000
001F038000
001F870000
000F860000
000FCE0000
0007DC0000
0003F80000
0003F00000
0001F00000
0001F80000
0001F80000
0001FC0000
0003FE0000
00073E0000
000E1F0000
000C1F8000
001C0F8000
003807C000
007007E000
007003E000
00E003F000
01C001F800
03C000F800
038000FC00
0700007E00
3F00007FC0
3E00003FC0
ENDCHAR

STARTCHAR Y
ENCODING 89
SWIDTH 667 0
DWIDTH 33 0
BBX 35 35 -1 0
BITMAP
1F00000780
7FC0000F00
1FC0000F00
07E0001E00
03F0001C00
01F0003800
01F8003800
00FC007000
007C00E000
007E00E000
003E01C000
001F018000
001F038000
000F870000
000F860000
0007CE0000
0003CC0000
0003FC0000
0001F80000
0001F80000
0000F00000
0000F00000
0000F00000
0000F00000
0000F00000
0000F00000
0000F00000
0000F00000
0000F00000
0000F00000
0000F00000
0000F80000
0001F80000
001FFF8000
001FFF8000
ENDCHAR

STARTCHAR Z
ENCODING 90
SWIDTH 667 0
DWIDTH 33 0
BBX 33 34 0 0
BITMAP
0FFFFFFF00
0FFFFFFE00
0F00007E00
0C0000FC00
0C0001F800
0C0003F000
0C0003E000
0C0007C000
00000FC000
00001F8000
00001F0000
00003E0000
00007E0000
0000FC0000
0000F80000
0001F00000
0003F00000
0007E00000
000FC00000
000F800000
001F000000
003F000000
007E000000
007C000000
00F8000000
01F8000000
03F0000200
03E0000200
07C0000600
0FC0000600
1F80000600
3F00000E00
7FFFFFFE00
7FFFFFFE00
ENDCHAR

STARTCHAR bracketleft
ENCODING 91
SWIDTH 333 0
DWIDTH 17 0
BBX 13 47 3 -11
BITMAP
3FF0
3FC0
3E00
3C00
3C00
3C00
3C00
3C00
3C00
3C00
3C00
3C00
3C00
3C00
3C00
3C00
3C00
3C00
3C00
3C00
3C00
3C00
3C00
3C00
3C00
3C00
3C00
3C00
3C00
3C00
3C00
3C00
3C00
3C00
3C00
3C00
3C00
3C00
3C00
3C00
3C00
3C00
3C00
3C00
3F00
3FF0
3FF0
ENDCHAR

STARTCHAR backslash
ENCODING 92
SWIDTH 606 0
DWIDTH 30 0
BBX 27 47 0 -11
BITMAP
3C000000
1C000000
1E000000
0E000000
0F000000
0F000000
07000000
07800000
03800000
03C00000
03C00000
01C00000
01E00000
00E00000
00F00000
00700000
00780000
00780000
00380000
003C0000
001C0000
001E0000
000E0000
000E0000
000F0000
00070000
00078000
00038000
00038000
0003C000
0001C000
0001E000
0000E000
0000F000
00007000
00007000
00007800
00003800
00003C00
00001C00
00001C00
00001E00
00000E00
00000F00
00000700
00000780
00000780
ENDCHAR

STARTCHAR bracketright
ENCODING 93
SWIDTH 333 0
DWIDTH 17 0
BBX 13 47 1 -11
BITMAP
7FE0
1FE0
03E0
01E0
01E0
01E0
01E0
01E0
01E0
01E0
01E0
01E0
01E0
01E0
01E0
01E0
01E0
01E0
01E0
01E0
01E0
01E0
01E0
01E0
01E0
01E0
01E0
01E0
01E0
01E0
01E0
01E0
01E0
01E0
01E0
01E0
01E0
01E0
01E0
01E0
01E0
01E0
01E0
01E0
03E0
7FE0
7FE0
ENDCHAR

STARTCHAR asciicircum
ENCODING 94
SWIDTH 606 0
DWIDTH 30 0
BBX 28 21 1 16
BITMAP
00070000
000F0000
000F8000
001F8000
001DC000
0039C000
0078E000
0070E000
00E07000
00E07800
01C03800
01C01C00
03801C00
03800E00
07000E00
06000700
0E000700
1C000380
1C0001C0
380001C0
380000E0
ENDCHAR

STARTCHAR underscore
ENCODING 95
SWIDTH 500 0
DWIDTH 25 0
BBX 29 3 -2 -6
BITMAP
3FFFFFE0
3FFFFFE0
3FFFFFE0
ENDCHAR

STARTCHAR quoteleft
ENCODING 96
SWIDTH 278 0
DWIDTH 14 0
BBX 13 13 -1 23
BITMAP
0060
00E0
01C0
03C0
0380
0780
0700
0F00
1F00
1F00
1E00
3C00
2000
ENDCHAR

STARTCHAR a
ENCODING 97
SWIDTH 500 0
DWIDTH 25 0
BBX 26 25 0 -1
BITMAP
003E0000
00FFC000
03FFE000
0E03F000
0C01F000
0C00F800
08007800
00007800
00007800
00007800
000FF800
00FE7800
07E07800
0F807800
1E007800
1E007800
3C007800
3C007800
3C00F800
3E01F800
3E037800
3F0E7800
1FFC7C00
0FF07F80
03E00000
ENDCHAR

STARTCHAR b
ENCODING 98
SWIDTH 553 0
DWIDTH 28 0
BBX 30 38 -2 -1
BITMAP
00400000
0FC00000
3FC00000
07C00000
03C00000
03C00000
03C00000
03C00000
03C00000
03C00000
03C00000
03C00000
03C00000
03C0FC00
03C3FF00
03C7FF80
03CE1FC0
03D807E0
03F003E0
03E001F0
03C001F0
03C001F0
03C000F0
03C000F0
03C000F0
03C000F0
03C000F0
03C000E0
03C001E0
03C001E0
03C001C0
03C00380
03E00380
03F00600
03F81C00
03FFF800
023FE000
000F8000
ENDCHAR

STARTCHAR c
ENCODING 99
SWIDTH 444 0
DWIDTH 22 0
BBX 23 25 0 -1
BITMAP
000FC0
003FF8
00FFF8
03C078
070038
0E0018
1E0018
1E0018
1C0000
3C0000
3C0000
3C0000
3C0000
3C0000
3E0000
3E0000
3E0000
3F0000
1F0000
1F8000
0FC000
07F018
03FFF8
00FFE0
001F00
ENDCHAR

STARTCHAR d
ENCODING 100
SWIDTH 611 0
DWIDTH 31 0
BBX 31 38 0 -1
BITMAP
000000C0
00001FC0
00007FC0
00000F80
00000780
00000780
00000780
00000780
00000780
00000780
00000780
00000780
00000780
000FC780
003FFF80
00E0FF80
03803F80
07000F80
0F000780
1E000780
1E000780
1E000780
3C000780
3C000780
3C000780
3C000780
3C000780
3E000780
3E000780
3E000780
3E000F80
1F000F80
1F801F80
0FC03780
0FF0E780
07FFC7F8
01FF87F8
007E0000
ENDCHAR

STARTCHAR e
ENCODING 101
SWIDTH 479 0
DWIDTH 24 0
BBX 24 25 0 -1
BITMAP
001F80
00FFE0
03C1F0
070078
0F007C
1E003C
1E003C
1E003E
3C003E
3C003E
3FFFFE
3FFFF8
3C0000
3E0000
3E0000
3E0000
3E0000
3F0000
1F0000
1F8000
0FC004
07F01C
03FFF8
01FFE0
003F00
ENDCHAR

STARTCHAR f
ENCODING 102
SWIDTH 333 0
DWIDTH 17 0
BBX 19 37 -1 0
BITMAP
0007C0
000FC0
001FC0
0030C0
006000
00E000
01C000
01C000
03C000
03C000
03C000
03C000
03C000
03C000
03C000
0FFF80
3FFF00
03C000
03C000
03C000
03C000
03C000
03C000
03C000
03C000
03C000
03C000
03C000
03C000
03C000
03C000
03C000
03C000
03C000
07E000
3FFE00
3FFE00
ENDCHAR

STARTCHAR g
ENCODING 103
SWIDTH 556 0
DWIDTH 28 0
BBX 28 39 1 -15
BITMAP
003F0000
01FFC000
0783FFC0
0F01FFC0
1E00FF80
1C00F800
3C007800
3C007800
3C007800
3C007800
3C007800
3E007000
3E00E000
1F01E000
1F838000
07FF0000
01F80000
01000000
06000000
0E000000
1E000000
1F800000
1FFFFE00
0FFFFF00
03FFFF00
03001F80
0E000F80
3C000780
38000780
78000780
78000780
78000700
78000700
3C000E00
3C001C00
1E003800
0F80F000
07FFC000
00FE0000
ENDCHAR

STARTCHAR h
ENCODING 104
SWIDTH 582 0
DWIDTH 29 0
BBX 31 37 -1 0
BITMAP
00C00000
0FC00000
3FC00000
07C00000
03C00000
03C00000
03C00000
03C00000
03C00000
03C00000
03C00000
03C00000
03C00000
03C1FC00
03C3FF00
03C7FF80
03DC1F80
03F007C0
03E007C0
03C003C0
03C003C0
03C003C0
03C003C0
03C003C0
03C003C0
03C003C0
03C003C0
03C003C0
03C003C0
03C003C0
03C003C0
03C003C0
03C003C0
03C003C0
03C003C0
1FFC03F8
3FFC03FC
ENDCHAR

STARTCHAR i
ENCODING 105
SWIDTH 291 0
DWIDTH 15 0
BBX 16 34 -1 0
BITMAP
0180
03C0
07E0
07E0
03C0
0180
0000
0000
0000
0000
00C0
0FC0
3FC0
07C0
03C0
03C0
03C0
03C0
03C0
03C0
03C0
03C0
03C0
03C0
03C0
03C0
03C0
03C0
03C0
03C0
03C0
03E0
3FF8
3FFC
ENDCHAR

STARTCHAR j
ENCODING 106
SWIDTH 234 0
DWIDTH 12 0
BBX 14 48 -4 -14
BITMAP
0060
00F0
01F8
01F8
00F0
0000
0000
0000
0000
0000
0018
07F0
0FF0
01F0
00F0
00F0
00F0
00F0
00F0
00F0
00F0
00F0
00F0
00F0
00F0
00F0
00F0
00F0
00F0
00F0
00F0
00F0
00F0
00F0
00F0
00F0
00F0
00F0
00F0
00E0
01E0
01E0
01C0
01C0
0380
0700
3E00
3800
ENDCHAR

STARTCHAR k
ENCODING 107
SWIDTH 556 0
DWIDTH 28 0
BBX 30 36 -1 0
BITMAP
00C00000
0FC00000
3FC00000
07C00000
03C00000
03C00000
03C00000
03C00000
03C00000
03C00000
03C00000
03C00000
03C00000
03C007C0
03C00FC0
03C01E00
03C03C00
03C07000
03C0E000
03C1C000
03C70000
03CE0000
03DE0000
03FF0000
03DF8000
03CFC000
03C7E000
03C3F000
03C0F800
03C07C00
03C03F00
03C01F80
03C00FC0
03E007F0
3FFC03F0
3FFC01C0
ENDCHAR

STARTCHAR l
ENCODING 108
SWIDTH 291 0
DWIDTH 15 0
BBX 16 36 -1 0
BITMAP
0060
07C0
3FC0
07C0
03C0
03C0
03C0
03C0
03C0
03C0
03C0
03C0
03C0
03C0
03C0
03C0
03C0
03C0
03C0
03C0
03C0
03C0
03C0
03C0
03C0
03C0
03C0
03C0
03C0
03C0
03C0
03C0
03C0
03C0
1FF8
3FFC
ENDCHAR

STARTCHAR m
ENCODING 109
SWIDTH 883 0
DWIDTH 44 0
BBX 46 24 -1 0
BITMAP
00C1F803F000
07C7FC0FF800
3FCFFF1FFE00
07D83F307E00
03F00FE03F00
03E00FC01F00
03C007800F00
03C007800F00
03C007800F00
03C007800F00
03C007800F00
03C007800F00
03C007800F00
03C007800F00
03C007800F00
03C007800F00
03C007800F00
03C007800F00
03C007800F00
03C007800F00
03C007800F00
03C007C00F00
3FFC7FF80FF0
3FFC7FF80FF0
ENDCHAR

STARTCHAR n
ENCODING 110
SWIDTH 582 0
DWIDTH 29 0
BBX 31 24 -1 0
BITMAP
00C1F800
0FC7FF00
3FCFFF80
07DC1F80
03F00FC0
03E007C0
03C003C0
03C003C0
03C003C0
03C003C0
03C003C0
03C003C0
03C003C0
03C003C0
03C003C0
03C003C0
03C003C0
03C003C0
03C003C0
03C003C0
03C003C0
03C003E0
3FFC03FC
3FFC03FC
ENDCHAR

STARTCHAR o
ENCODING 111
SWIDTH 546 0
DWIDTH 27 0
BBX 26 25 1 -1
BITMAP
003F8000
00FFE000
03C1F800
07007C00
0E003E00
1E003E00
1C001F00
3C001F00
3C000F80
3C000F80
7C000F80
7C000F80
7C000F80
7C000F80
7C000F80
7C000F00
3E000F00
3E000F00
3E000E00
1F001E00
0F801C00
0FC03800
07E0F000
01FFC000
007E0000
ENDCHAR

STARTCHAR p
ENCODING 112
SWIDTH 601 0
DWIDTH 30 0
BBX 31 37 -1 -13
BITMAP
00C0FE00
0FC3FF80
3FC7FFC0
07CE0FE0
03D803F0
03F001F0
03E001F8
03C000F8
03C000F8
03C00078
03C00078
03C00078
03C00078
03C00078
03C00070
03C000F0
03C000F0
03C000E0
03C001C0
03E00180
03F00700
03F80E00
03FFF800
03FFF000
03C78000
03C00000
03C00000
03C00000
03C00000
03C00000
03C00000
03C00000
03C00000
03C00000
03C00000
07E00000
3FFE0000
ENDCHAR

STARTCHAR q
ENCODING 113
SWIDTH 560 0
DWIDTH 28 0
BBX 30 38 0 -14
BITMAP
000FE080
003FFF80
00E0FF80
03803F80
07000F00
0F000F00
0E000F00
1E000F00
1C000F00
3C000F00
3C000F00
3C000F00
3C000F00
3C000F00
3C000F00
3E000F00
3E000F00
3E000F00
1F000F00
1F801F00
0FC03F00
0FE0EF00
07FFCF00
01FF0F00
007C0F00
00000F00
00000F00
00000F00
00000F00
00000F00
00000F00
00000F00
00000F00
00000F00
00000F00
00001F80
0000FFF0
0000FFF0
ENDCHAR

STARTCHAR r
ENCODING 114
SWIDTH 395 0
DWIDTH 20 0
BBX 21 24 -1 0
BITMAP
00C1E0
1FC7E0
3FC7E0
07CFE0
03D8E0
03F060
03E000
03E000
03C000
03C000
03C000
03C000
03C000
03C000
03C000
03C000
03C000
03C000
03C000
03C000
03C000
03E000
3FFE00
3FFE00
ENDCHAR

STARTCHAR s
ENCODING 115
SWIDTH 424 0
DWIDTH 21 0
BBX 20 25 1 -1
BITMAP
01FC00
07FF80
1E0780
3C0380
380180
380180
780180
780000
7C0000
3F0000
3FF800
1FFF00
0FFF80
03FFC0
001FE0
0003E0
0001E0
6001E0
6001E0
6001C0
6001C0
700380
7C0F00
7FFC00
07F000
ENDCHAR

STARTCHAR t
ENCODING 116
SWIDTH 326 0
DWIDTH 16 0
BBX 18 31 0 -1
BITMAP
018000
078000
078000
078000
078000
078000
078000
078000
078000
1FFF00
7FFF00
078000
078000
078000
078000
078000
078000
078000
078000
078000
078000
078000
078000
078000
078000
078000
07C000
07E200
07FE00
03FC00
01F800
ENDCHAR

STARTCHAR u
ENCODING 117
SWIDTH 603 0
DWIDTH 30 0
BBX 32 25 -1 -1
BITMAP
00E000C0
0FE01FC0
3FE03FC0
07C003C0
03C003C0
03C003C0
03C003C0
03C003C0
03C003C0
03C003C0
03C003C0
03C003C0
03C003C0
03C003C0
03C003C0
03C003C0
03C003C0
03C003C0
03C007C0
03E00FC0
03E01BC0
01F87BC0
01FFF3FC
00FFC3FC
003F0000
ENDCHAR

STARTCHAR v
ENCODING 118
SWIDTH 565 0
DWIDTH 28 0
BBX 30 24 -1 -1
BITMAP
3FF81FF0
3FF81FF0
0FC003C0
07C00380
07C00380
03E00300
03E00700
01E00600
01F00600
00F00C00
00F00C00
00F81800
00781800
007C1000
003C3000
003C3000
003E6000
001E6000
001FC000
000FC000
000F8000
00078000
00078000
00070000
ENDCHAR

STARTCHAR w
ENCODING 119
SWIDTH 834 0
DWIDTH 42 0
BBX 43 24 -1 -1
BITMAP
3FFC0300FFC0
3FFC0300FFC0
07C007000E00
07C007800E00
03C00F800C00
03E00FC01C00
03E01FC01800
01E01BC01800
01E01BE03000
01F031E03000
00F031E03000
00F061F06000
00F860F06000
0078C0F8C000
0078C078C000
007980788000
003D807D8000
003F803D8000
003F003F0000
003F001F0000
001E001F0000
001E001E0000
001E000E0000
000C000E0000
ENDCHAR

STARTCHAR x
ENCODING 120
SWIDTH 516 0
DWIDTH 26 0
BBX 26 24 0 -1
BITMAP
0F000F00
3F801E00
7F803800
0FC03000
07E07000
03F0E000
01F0C000
00F98000
007B0000
007F0000
003E0000
001F0000
001F0000
003F8000
0077C000
0067C000
00C3E000
0181F000
0381F000
0700F800
0E007C00
1E007F80
7C003F80
00001000
ENDCHAR

STARTCHAR y
ENCODING 121
SWIDTH 556 0
DWIDTH 28 0
BBX 30 37 -1 -14
BITMAP
3FF81FF0
3FF81FF0
0FC003C0
07C00380
03C00300
03E00700
03E00600
01E00600
01F00E00
00F00C00
00F00C00
00F81800
00781800
007C3000
003C3000
003E2000
001E6000
001E4000
001FC000
000FC000
000F8000
00078000
00070000
00070000
00030000
00060000
00060000
000C0000
000C0000
00080000
00180000
00100000
00300000
0C600000
1FE00000
1FC00000
1F000000
ENDCHAR

STARTCHAR z
ENCODING 122
SWIDTH 500 0
DWIDTH 25 0
BBX 25 23 0 0
BITMAP
0FFFFE00
0FFFFE00
0C007C00
0800F800
0801F000
0801F000
1803E000
0007C000
000F8000
000F0000
001F0000
003E0000
007C0000
00F80000
00F80000
01F00000
03E00300
07C00200
0F800200
1F800600
3F000600
3FFFFE00
7FFFFE00
ENDCHAR

STARTCHAR braceleft
ENCODING 123
SWIDTH 333 0
DWIDTH 17 0
BBX 19 50 -1 -14
BITMAP
000380
000C00
003800
007000
006000
00E000
00E000
01E000
01E000
01E000
01E000
01E000
01F000
01F000
01F000
00F000
00F000
00F000
00E000
00E000
00C000
018000
030000
0E0000
300000
1C0000
070000
018000
01C000
00E000
00E000
00F000
00F000
00F000
00F000
00F000
01F000
01F000
01E000
01E000
01E000
01E000
00E000
00E000
006000
007000
003800
000C00
000700
000080
ENDCHAR

STARTCHAR bar
ENCODING 124
SWIDTH 606 0
DWIDTH 30 0
BBX 7 45 12 -9
BITMAP
38
38
38
38
38
38
38
38
38
38
38
38
38
38
38
38
38
38
38
38
38
38
38
38
38
38
38
38
38
38
38
38
38
38
38
38
38
38
38
38
38
38
38
38
38
ENDCHAR

STARTCHAR braceright
ENCODING 125
SWIDTH 333 0
DWIDTH 17 0
BBX 19 50 -1 -14
BITMAP
380000
0E0000
030000
018000
00C000
00E000
00E000
00F000
00F000
00F000
00F000
00F000
01F000
01F000
01E000
01E000
01E000
01E000
00E000
00E000
007000
003000
001800
000E00
000380
000700
001C00
003000
007000
00E000
00E000
01E000
01E000
01E000
01E000
01F000
01F000
01F000
01F000
00F000
00F000
00F000
00E000
00E000
00E000
01C000
038000
070000
1C0000
200000
ENDCHAR

STARTCHAR asciitilde
ENCODING 126
SWIDTH 606 0
DWIDTH 30 0
BBX 29 9 1 13
BITMAP
07C00020
1FF00020
3FFE0060
3FFF8060
387FE0E0
700FFFC0
6003FFC0
6000FF80
40001E00
ENDCHAR

STARTCHAR space
ENCODING 160
SWIDTH 250 0
DWIDTH 17 0
BBX 0 0 0 0
BITMAP
ENDCHAR

STARTCHAR Aogonek
ENCODING 161
SWIDTH 778 0
DWIDTH 39 0
BBX 40 46 0 -11
BITMAP
0000180000
00001C0000
00003C0000
00003C0000
00007E0000
00007E0000
00007F0000
0000DF0000
0000CF8000
0001CF8000
0001878000
000387C000
000307C000
000703E000
000703E000
000601F000
000E01F000
000C00F000
001C00F800
001800F800
0038007C00
003FFFFC00
007FFFFE00
0070003E00
0060001E00
00E0001F00
00C0001F00
01C0000F80
01C0000F80
0380000FC0
03800007C0
07800007C0
07800007E0
1FF8007FF8
7FF8007FFC
0000000300
0000000E00
0000001C00
0000001800
0000003800
0000003800
0000007800
0000007C60
0000003FC0
0000003F80
0000000E00
ENDCHAR

STARTCHAR afii240
ENCODING 162
SWIDTH 500 0
DWIDTH 25 0
BBX 28 22 -1 0
BITMAP
7FF9FF80
0FC07C00
07807000
0780E000
0781C000
07830000
07860000
078C0000
07B80000
07FC0000
07BE0000
07BE0000
079F0000
078F8000
0787C000
0783E000
0783F000
0781F000
0780F800
07807C00
0FC07E00
7FF9FFC0
ENDCHAR

STARTCHAR Rcommaaccent
ENCODING 163
SWIDTH 668 0
DWIDTH 33 0
BBX 35 46 0 -12
BITMAP
3FFFFE0000
3FFFFFC000
03F00FE000
03E003F000
03E001F800
03E001F800
03E000F800
03E000F800
03E000F800
03E000F800
03E000F000
03E001F000
03E001E000
03E003C000
03E00F8000
03E03E0000
03E7F00000
03E3F00000
03E1F80000
03E0F80000
03E0FC0000
03E07E0000
03E03F0000
03E01F8000
03E00FC000
03E00FC000
03E007E000
03E003F000
03E001F800
03E001F800
03E000FC00
03E0007E00
3FFF003F80
3FFF001F80
0000000000
0000000000
0000000000
0000F00000
0000E00000
0001E00000
0001C00000
0001800000
0003800000
0003000000
0006000000
0004000000
ENDCHAR

STARTCHAR currency
ENCODING 164
SWIDTH 606 0
DWIDTH 30 0
BBX 28 25 1 5
BITMAP
303FC080
78FFF1C0
3FFFFFC0
1FF0FF80
0F801F00
1F000F80
1E000780
3C0003C0
3C0003C0
380001C0
780001E0
780001E0
780001E0
780001E0
780001E0
380001C0
3C0003C0
3C0003C0
1E000780
0F000F80
0FC01F00
1FF0FF80
3FFFFFC0
38FFF1C0
103FC080
ENDCHAR

STARTCHAR Itilde
ENCODING 165
SWIDTH 337 0
DWIDTH 17 0
BBX 21 43 -2 0
BITMAP
078020
0FF060
1FFFC0
307F80
200F00
000000
000000
000000
000000
0FFFC0
0FFFC0
00F800
00F800
00F800
00F800
00F800
00F800
00F800
00F800
00F800
00F800
00F800
00F800
00F800
00F800
00F800
00F800
00F800
00F800
00F800
00F800
00F800
00F800
00F800
00F800
00F800
00F800
00F800
00F800
00F800
00FC00
0FFFC0
0FFFC0
ENDCHAR

STARTCHAR Lcommaaccent
ENCODING 166
SWIDTH 611 0
DWIDTH 31 0
BBX 31 46 0 -12
BITMAP
7FFF0000
7FFF0000
03E00000
03E00000
03E00000
03E00000
03E00000
03E00000
03E00000
03E00000
03E00000
03E00000
03E00000
03E00000
03E00000
03E00000
03E00000
03E00000
03E00000
03E00000
03E00000
03E00000
03E00000
03E00000
03E00000
03E00008
03E00008
03E00018
03E00018
03E00018
03E00018
03E001F8
0FFFFFF8
0FFFFFF0
00000000
00000000
00000000
0000C000
0003C000
00038000
00078000
00070000
00060000
000C0000
000C0000
00180000
ENDCHAR

STARTCHAR section
ENCODING 167
SWIDTH 500 0
DWIDTH 25 0
BBX 22 43 2 -8
BITMAP
003F00
01FFC0
03FFC0
0703C0
0E00C0
1C00C0
1800C0
1800C0
380000
380000
3C0000
3E0000
1F8000
1FF000
0FFE00
0FFF80
1CFFE0
181FF0
3803F0
3800F8
780078
780078
7C0078
3F0070
3FE070
1FFC60
0FFFC0
03FFC0
007FE0
000FE0
0003F0
0000F0
0000F0
000070
100070
100060
100060
1000C0
1801C0
1E0380
3FFF00
0FFC00
01F000
ENDCHAR

STARTCHAR hungarumlaut
ENCODING 168
SWIDTH 380 0
DWIDTH 19 0
BBX 19 9 0 25
BITMAP
018180
0383C0
0787C0
070780
0E0E00
1C1C00
183800
306000
60C000
ENDCHAR

STARTCHAR Scaron
ENCODING 169
SWIDTH 525 0
DWIDTH 26 0
BBX 28 46 -1 -1
BITMAP
01801800
00C03000
00606000
0070E000
0039C000
001F8000
000F0000
000F0000
00000000
00000000
003FE000
01FFFE00
03E03F00
07800F00
0F000700
1E000200
1E000200
3C000200
3C000200
3C000000
3C000000
3C000000
3E000000
3F000000
1F800000
1FF80000
0FFFF800
07FFFE00
01FFFF00
001FFF80
00003FC0
00000FC0
000007C0
000007C0
000003C0
000003C0
000003C0
300003C0
30000380
30000780
30000700
38000E00
3C003C00
3F80F800
1FFFE000
01FF0000
ENDCHAR

STARTCHAR Emacron
ENCODING 170
SWIDTH 611 0
DWIDTH 31 0
BBX 30 42 0 0
BITMAP
007FF800
007FF800
00000000
00000000
00000000
00000000
00000000
00000000
7FFFFFF0
3FFFFFE0
03E001E0
03E00060
03E00060
03E00060
03E00060
03E00000
03E00000
03E00000
03E00000
03E00300
03E00300
03E00300
03E00300
03FFFF00
03FFFF00
03E00700
03E00300
03E00300
03E00300
03E00300
03E00000
03E00000
03E00000
03E00000
03E00030
03E00030
03E00030
03E00030
03E00030
03E000F0
07FFFFF0
3FFFFFF0
ENDCHAR

STARTCHAR Gcommaaccent
ENCODING 171
SWIDTH 763 0
DWIDTH 38 0
BBX 39 48 -1 -13
BITMAP
00007FF800
0007FFFF80
001FC03FF0
007E0003F0
00F80000E0
01F0000060
03E0000060
07C0000060
0780000060
0F80000060
0F00000000
1F00000000
1F00000000
1E00000000
3E00000000
3E00000000
3E00000000
3E00000000
3E00000000
3E00000000
3E00000000
3F00000000
3F00007FFC
1F000003F0
1F800001F0
1F800001F0
0FC00001F0
0FC00001F0
07E00001F0
03F00001F0
01F80001F0
00FC0001F0
007F0003F0
003FE01FE0
0007FFFF00
0000FFF000
0000000000
0000000000
0000010000
00000F0000
00000E0000
00000E0000
00001C0000
00001C0000
0000180000
0000300000
0000600000
0000400000
ENDCHAR

STARTCHAR afii237
ENCODING 172
SWIDTH 611 0
DWIDTH 31 0
BBX 31 33 0 0
BITMAP
3FFFFFF8
3FFFFFF8
3C07C038
3007C018
3007C008
2007C008
2007C008
2007C004
0007C000
0007C000
0007C000
0007C000
0007C000
0007C000
0007C000
3FFFFFFC
3FFFFFFC
0007C000
0007C000
0007C000
0007C000
0007C000
0007C000
0007C000
0007C000
0007C000
0007C000
0007C000
0007C000
0007C000
0007C000
000FE000
00FFFE00
ENDCHAR

STARTCHAR hyphen
ENCODING 173
SWIDTH 333 0
DWIDTH 17 0
BBX 17 4 0 10
BITMAP
3FFF00
3FFE00
3FFE00
7FFE00
ENDCHAR

STARTCHAR Zcaron
ENCODING 174
SWIDTH 667 0
DWIDTH 33 0
BBX 33 45 0 0
BITMAP
0060030000
0030060000
00380C0000
001C180000
000E380000
0007700000
0007E00000
0003C00000
0001C00000
0000000000
0000000000
0FFFFFFF00
0FFFFFFE00
0F00007E00
0C0000FC00
0C0001F800
0C0003F000
0C0003E000
0C0007C000
00000FC000
00001F8000
00001F0000
00003E0000
00007E0000
0000FC0000
0000F80000
0001F00000
0003F00000
0007E00000
000FC00000
000F800000
001F000000
003F000000
007E000000
007C000000
00F8000000
01F8000000
03F0000200
03E0000200
07C0000600
0FC0000600
1F80000600
3F00000E00
7FFFFFFE00
7FFFFFFE00
ENDCHAR

STARTCHAR macron
ENCODING 175
SWIDTH 333 0
DWIDTH 17 0
BBX 15 2 1 28
BITMAP
7FFC
7FFC
ENDCHAR

STARTCHAR degree
ENCODING 176
SWIDTH 401 0
DWIDTH 20 0
BBX 18 16 1 19
BITMAP
03F000
0FFC00
1FFE00
1E1F00
380700
380780
700380
700380
700380
700380
780780
380700
1E1F00
1FFE00
0FFC00
03F000
ENDCHAR

STARTCHAR aogonek
ENCODING 177
SWIDTH 500 0
DWIDTH 25 0
BBX 25 35 0 -11
BITMAP
003E0000
01FF8000
03FFC000
0E07E000
0C01E000
0C01F000
0800F000
0000F000
0000F000
0000F000
001FF000
00FCF000
07C0F000
0F00F000
1E00F000
1E00F000
3C00F000
3C00F000
3C00F000
3C03F000
3E07F000
3F0EF000
1FF8F800
0FF0FF00
03E03800
00006000
0000C000
00018000
00038000
00038000
00078000
0007C600
0003FC00
0003F800
0000E000
ENDCHAR

STARTCHAR ogonek
ENCODING 178
SWIDTH 313 0
DWIDTH 16 0
BBX 12 11 2 -11
BITMAP
0300
0600
1C00
1800
3800
3800
7800
7C60
3FC0
3F80
0E00
ENDCHAR

STARTCHAR rcommaaccent
ENCODING 179
SWIDTH 395 0
DWIDTH 20 0
BBX 21 36 -1 -12
BITMAP
00C1E0
1FC7E0
3FC7E0
07CFE0
03D8E0
03F060
03E000
03E000
03C000
03C000
03C000
03C000
03C000
03C000
03C000
03C000
03C000
03C000
03C000
03C000
03C000
03E000
3FFE00
3FFE00
000000
000000
000000
007800
007000
00F000
00E000
00C000
01C000
018000
030000
020000
ENDCHAR

STARTCHAR acute
ENCODING 180
SWIDTH 333 0
DWIDTH 17 0
BBX 14 9 2 25
BITMAP
0020
0070
00F0
01F0
03C0
0700
0E00
1800
2000
ENDCHAR

STARTCHAR itilde
ENCODING 181
SWIDTH 291 0
DWIDTH 15 0
BBX 21 32 -3 0
BITMAP
038020
0FF060
1FFFC0
103FC0
200700
000000
000000
000000
000000
003800
07F800
07F800
007800
007800
007800
007800
007800
007800
007800
007800
007800
007800
007800
007800
007800
007800
007800
007800
007800
007800
00FE00
07FF80
ENDCHAR

STARTCHAR lcommaaccent
ENCODING 182
SWIDTH 291 0
DWIDTH 15 0
BBX 16 48 -1 -12
BITMAP
00C0
1FC0
3FC0
03C0
03C0
03C0
03C0
03C0
03C0
03C0
03C0
03C0
03C0
03C0
03C0
03C0
03C0
03C0
03C0
03C0
03C0
03C0
03C0
03C0
03C0
03C0
03C0
03C0
03C0
03C0
03C0
03C0
03C0
03C0
0FF0
3FFC
0000
0000
0000
0060
01C0
03C0
0380
0380
0700
0600
0C00
0C00
ENDCHAR

STARTCHAR caron
ENCODING 183
SWIDTH 333 0
DWIDTH 17 0
BBX 18 9 -1 25
BITMAP
300180
180300
1C0600
0E0C00
071C00
03B800
03F000
01E000
00E000
ENDCHAR

STARTCHAR commaaccent
ENCODING 184
SWIDTH 333 0
DWIDTH 17 0
BBX 12 12 2 -15
BITMAP
00C0
07C0
0780
0780
0700
0F00
0E00
1E00
1C00
1800
3000
7000
ENDCHAR

STARTCHAR scaron
ENCODING 185
SWIDTH 424 0
DWIDTH 21 0
BBX 20 35 1 -1
BITMAP
180180
0C0300
0E0700
070E00
039C00
01F800
01F000
00F000
000000
000000
01FC00
07FF80
1E0780
3C0380
380180
380180
780180
780000
7C0000
3F0000
3FF800
1FFF00
0FFF80
03FFC0
001FE0
0003E0
0001E0
6001E0
6001E0
6001C0
6001C0
700380
7C0F00
7FFC00
07F000
ENDCHAR

STARTCHAR emacron
ENCODING 186
SWIDTH 479 0
DWIDTH 24 0
BBX 24 32 0 -1
BITMAP
03FFE0
03FFE0
000000
000000
000000
000000
000000
001F80
00FFE0
03C1F0
070078
0F007C
1E003C
1E003C
1E003E
3C003E
3C003E
3FFFFE
3FFFF8
3C0000
3E0000
3E0000
3E0000
3E0000
3F0000
1F0000
1F8000
0FC004
07F01C
03FFF8
01FFE0
003F00
ENDCHAR

STARTCHAR gcommaaccent
ENCODING 187
SWIDTH 556 0
DWIDTH 28 0
BBX 28 50 1 -15
BITMAP
00008000
00018000
00030000
00070000
000E0000
000E0000
001E0000
001C0000
00380000
00000000
00000000
00000000
003F0000
01FFC000
0783FFC0
0E01FFC0
1E00FF80
1C00F800
3C007800
3C007800
3C007800
3C007800
3E007000
3E00F000
1F00E000
1F83C000
07FF0000
01F80000
01000000
06000000
0E000000
1E000000
1F800000
1FFFFE00
0FFFFF00
03FFFF00
03001F80
0E000F80
3C000780
38000780
78000780
78000780
78000700
78000700
3C000E00
3C001C00
1E003800
0F80F000
07FFC000
00FE0000
ENDCHAR

STARTCHAR afii253
ENCODING 188
SWIDTH 278 0
DWIDTH 14 0
BBX 16 30 -1 0
BITMAP
0080
0080
0180
0380
0380
0780
0F80
3FFC
7FFC
0780
0780
0780
0780
0780
0780
7FFC
7FFC
0780
0780
0780
0780
0780
0780
0780
0780
0782
07C4
03FC
03F8
00E0
ENDCHAR

STARTCHAR afii238
ENCODING 189
SWIDTH 728 0
DWIDTH 36 0
BBX 36 35 0 -1
BITMAP
1FE01F0000
0FE07FE000
07E1C0F800
03E3003C00
03E6001E00
03EC001E00
03E8000F00
03F0000F00
03F0000780
03E0000780
03E00007C0
03E00007C0
03E00007C0
03E00007E0
03E00007E0
03E00007E0
03E00007E0
03E00007E0
03E00007E0
03E00007E0
03E00007E0
03E00007E0
03E00007C0
03E00007C0
03E00007C0
03E00007C0
03E0000780
03E0000780
03E01E0700
03E01E0700
03E01F0E00
03E01F0C00
07F01F9800
7FFF0FF000
000003C000
ENDCHAR

STARTCHAR zcaron
ENCODING 190
SWIDTH 500 0
DWIDTH 25 0
BBX 25 33 0 0
BITMAP
02006000
0380C000
01C1C000
00E38000
00770000
007E0000
003E0000
001C0000
00000000
00000000
0FFFFE00
0FFFFE00
0C007C00
0800F800
0801F000
0801F000
1803E000
0007C000
000F8000
000F0000
001F0000
003E0000
007C0000
00F80000
00F80000
01F00000
03E00300
07C00200
0F800200
1F800600
3F000600
3FFFFE00
7FFFFE00
ENDCHAR

STARTCHAR afii254
ENCODING 191
SWIDTH 512 0
DWIDTH 26 0
BBX 24 34 -1 -11
BITMAP
0183E0
0F8FF0
3F9FF8
0FB0F8
07E07C
07C03C
07803C
07803C
07803C
07803C
07803C
07803C
07803C
07803C
07803C
07803C
07803C
07803C
07803C
07803C
07803C
0FC03C
3FF83C
00003C
00003C
00003C
00003C
000038
000038
001038
007830
007E60
007FC0
001F00
ENDCHAR

STARTCHAR Amacron
ENCODING 192
SWIDTH 778 0
DWIDTH 39 0
BBX 40 42 -1 0
BITMAP
0003FFE000
0003FFE000
0000000000
0000000000
0000000000
0000000000
0000000000
00000C0000
00001C0000
00001E0000
00001E0000
00003F0000
00003F0000
00007F0000
00006F8000
0000EF8000
0000C7C000
0001C7C000
000183E000
000183E000
000381E000
000301F000
000701F000
000600F800
000E00F800
000C007C00
001C007C00
001C007C00
001FFFFE00
003FFFFE00
0030001F00
0070001F00
0070000F80
00E0000F80
00E0000F80
01C00007C0
01C00007C0
01C00003E0
03800003E0
07800003F0
3FF8003FFE
3FF8003FFE
ENDCHAR

STARTCHAR Aacute
ENCODING 193
SWIDTH 778 0
DWIDTH 39 0
BBX 40 45 -1 0
BITMAP
000000C000
000001E000
000007C000
00000F8000
00001E0000
00003C0000
0000700000
0000C00000
0000000000
0000000000
00000C0000
00001C0000
00001E0000
00001E0000
00003F0000
00003F0000
00007F0000
00006F8000
0000EF8000
0000C7C000
0001C7C000
000183E000
000183E000
000381E000
000301F000
000701F000
000600F800
000E00F800
000C007C00
001C007C00
001C007C00
001FFFFE00
003FFFFE00
0030001F00
0070001F00
0070000F80
00E0000F80
00E0000F80
01C00007C0
01C00007C0
01C00003E0
03800003E0
07800003F0
3FF8003FFE
3FF8003FFE
ENDCHAR

STARTCHAR Acircumflex
ENCODING 194
SWIDTH 778 0
DWIDTH 39 0
BBX 40 45 -1 0
BITMAP
00001C0000
00003E0000
00007F0000
0000F70000
0000E38000
000181C000
0003006000
0002002000
0000000000
0000000000
00000C0000
00001C0000
00001E0000
00001E0000
00003F0000
00003F0000
00007F0000
00006F8000
0000EF8000
0000C7C000
0001C7C000
000183E000
000183E000
000381E000
000301F000
000701F000
000600F800
000E00F800
000C007C00
001C007C00
001C007C00
001FFFFE00
003FFFFE00
0030001F00
0070001F00
0070000F80
00E0000F80
00E0000F80
01C00007C0
01C00007C0
01C00003E0
03800003E0
07800003F0
3FF8003FFE
3FF8003FFE
ENDCHAR

STARTCHAR Atilde
ENCODING 195
SWIDTH 778 0
DWIDTH 39 0
BBX 40 43 -1 0
BITMAP
0001E00800
0003FC1800
0007FFF000
000C0FE000
0008018000
0000000000
0000000000
0000000000
00000C0000
00001C0000
00001E0000
00001E0000
00003F0000
00003F0000
00007F0000
00006F8000
0000EF8000
0000C7C000
0001C7C000
000183E000
000183E000
000381E000
000301F000
000701F000
000600F800
000E00F800
000C007C00
001C007C00
001C007C00
001FFFFE00
003FFFFE00
0030001F00
0070001F00
0070000F80
00E0000F80
00E0000F80
01C00007C0
01C00007C0
01C00003E0
03800003E0
07800003F0
3FF8003FFE
3FF8003FFE
ENDCHAR

STARTCHAR Adieresis
ENCODING 196
SWIDTH 778 0
DWIDTH 39 0
BBX 40 42 -1 0
BITMAP
000700E000
000F81F000
000F81F000
000F81F000
000700E000
0000000000
0000000000
0000180000
00001C0000
00003C0000
00003E0000
00003E0000
00007F0000
00007F0000
0000EF8000
0000CF8000
0001CF8000
000187C000
000387C000
000303E000
000303E000
000701F000
000601F000
000E00F000
000C00F800
001C00F800
0018007C00
0038007C00
003FFFFE00
007FFFFE00
0070001E00
0060001F00
00E0001F00
00C0000F80
01C0000F80
01C00007C0
03800007C0
03800007E0
07800003E0
07800003F0
7FF8003FFE
7FF8003FFE
ENDCHAR

STARTCHAR Aring
ENCODING 197
SWIDTH 778 0
DWIDTH 39 0
BBX 40 48 -1 0
BITMAP
00003C0000
00007F0000
0000C30000
0001818000
0001818000
0001818000
0001818000
0000C30000
00007F0000
00003C0000
0000000000
0000000000
0000000000
0000180000
00001C0000
00001C0000
00003E0000
00003E0000
00007E0000
00007F0000
00006F0000
0000CF8000
0000CF8000
0001C7C000
000187C000
000383C000
000303E000
000703E000
000601F000
000601F000
000E00F800
000C00F800
001C007800
0018007C00
003FFFFC00
003FFFFE00
0070003E00
0070001F00
0060001F00
00E0001F00
00C0000F80
01C0000F80
01C00007C0
03800007C0
03800007E0
07800007E0
3FF8007FFC
3FF8007FFC
ENDCHAR

STARTCHAR AE
ENCODING 198
SWIDTH 944 0
DWIDTH 47 0
BBX 48 34 -1 0
BITMAP
0000FFFFFFF8
00000FFFFFF8
000006780078
00000E780018
00000C780018
00001C780018
000018780018
000030780000
000070780000
000060780000
0000E0780000
0000C07800C0
0001807800C0
0001807800C0
0003007800C0
0003007FFFC0
0006007FFFC0
000E007801C0
000C007800C0
001C007800C0
001FFFF800C0
003FFFF800C0
003000780000
007000780000
006000780000
00E000780000
01C000780004
01C00078000C
03800078000C
03800078000C
07000078000C
0F000078007C
1FF001FFFFFC
7FF803FFFFFC
ENDCHAR

STARTCHAR Iogonek
ENCODING 199
SWIDTH 337 0
DWIDTH 17 0
BBX 17 45 0 -11
BITMAP
3FFF00
3FFF00
03E000
03E000
03E000
03E000
03E000
03E000
03E000
03E000
03E000
03E000
03E000
03E000
03E000
03E000
03E000
03E000
03E000
03E000
03E000
03E000
03E000
03E000
03E000
03E000
03E000
03E000
03E000
03E000
03E000
03E000
3FFE00
3FFE00
006000
01C000
038000
070000
070000
070000
0F0000
0F8C00
07F800
07F000
01C000
ENDCHAR

STARTCHAR Ccaron
ENCODING 200
SWIDTH 709 0
DWIDTH 35 0
BBX 36 46 0 -1
BITMAP
0018018000
000C030000
0006070000
00070E0000
0003DC0000
0001F80000
0000F80000
0000F00000
0000000000
0000000000
00007FF000
0007FFFF80
001FC03FC0
007E0007C0
00F8000180
01F0000180
03E0000180
07C0000180
0F80000180
0F80000000
1F00000000
1F00000000
1F00000000
3E00000000
3E00000000
3E00000000
3E00000000
3E00000000
3E00000000
3E00000000
3E00000000
3F00000000
1F00000000
1F00000000
1F80000000
0F80000000
0FC0000000
07E0000000
07F0000000
03F8000000
01FC000040
00FF0000C0
003FC007C0
000FFFFF00
0003FFFC00
00003F8000
ENDCHAR

STARTCHAR Eacute
ENCODING 201
SWIDTH 611 0
DWIDTH 31 0
BBX 30 44 0 0
BITMAP
00007800
0000F800
0001F000
0003E000
00078000
000E0000
001C0000
00300000
00000000
00000000
7FFFFFF0
3FFFFFE0
03E001E0
03E00060
03E00060
03E00060
03E00060
03E00000
03E00000
03E00000
03E00000
03E00300
03E00300
03E00300
03E00300
03FFFF00
03FFFF00
03E00700
03E00300
03E00300
03E00300
03E00300
03E00000
03E00000
03E00000
03E00000
03E00030
03E00030
03E00030
03E00030
03E00030
03E000F0
07FFFFF0
3FFFFFF0
ENDCHAR

STARTCHAR Eogonek
ENCODING 202
SWIDTH 611 0
DWIDTH 31 0
BBX 30 45 0 -11
BITMAP
7FFFFFF0
3FFFFFE0
03E001E0
03E00060
03E00060
03E00060
03E00060
03E00000
03E00000
03E00000
03E00000
03E00300
03E00300
03E00300
03E00300
03FFFF00
03FFFF00
03E00700
03E00300
03E00300
03E00300
03E00300
03E00000
03E00000
03E00000
03E00000
03E00010
03E00030
03E00030
03E00030
03E00030
03E000F0
07FFFFF0
3FFFFFF0
00000300
00000600
00000C00
00001C00
00001C00
00003C00
00003C00
00003C20
00001FE0
00001F80
00000700
ENDCHAR

STARTCHAR Edieresis
ENCODING 203
SWIDTH 611 0
DWIDTH 31 0
BBX 30 42 0 0
BITMAP
00E03C00
01F07E00
01F07E00
01F07E00
00E03C00
00000000
00000000
00000000
7FFFFFF0
3FFFFFF0
07C001E0
03C00060
03C00060
03C00060
03C00060
03C00000
03C00000
03C00000
03C00000
03C00300
03C00300
03C00300
03C00300
03FFFF00
03FFFF00
03C00700
03C00300
03C00300
03C00300
03C00300
03C00000
03C00000
03C00000
03C00000
03C00018
03C00010
03C00030
03C00030
03C00030
03C000F0
07FFFFF0
3FFFFFF0
ENDCHAR

STARTCHAR Edotaccent
ENCODING 204
SWIDTH 611 0
DWIDTH 31 0
BBX 30 42 0 0
BITMAP
00070000
000F8000
000F8000
000F8000
00070000
00000000
00000000
00000000
7FFFFFF0
3FFFFFE0
03E001E0
03E00060
03E00060
03E00060
03E00060
03E00000
03E00000
03E00000
03E00000
03E00300
03E00300
03E00300
03E00300
03FFFF00
03FFFF00
03E00700
03E00300
03E00300
03E00300
03E00300
03E00000
03E00000
03E00000
03E00000
03E00030
03E00030
03E00030
03E00030
03E00030
03E000F0
07FFFFF0
3FFFFFF0
ENDCHAR

STARTCHAR Iacute
ENCODING 205
SWIDTH 337 0
DWIDTH 17 0
BBX 17 44 0 0
BITMAP
001E00
003E00
007C00
00F800
01E000
038000
070000
0C0000
000000
000000
3FFF00
3FFF00
03E000
03E000
03E000
03E000
03E000
03E000
03E000
03E000
03E000
03E000
03E000
03E000
03E000
03E000
03E000
03E000
03E000
03E000
03E000
03E000
03E000
03E000
03E000
03E000
03E000
03E000
03E000
03E000
03E000
03F000
3FFF00
3FFF00
ENDCHAR

STARTCHAR Icircumflex
ENCODING 206
SWIDTH 337 0
DWIDTH 17 0
BBX 17 44 0 0
BITMAP
01C000
03E000
07F000
077800
0E3800
1C1C00
300600
200300
000000
000000
3FFF00
3FFF00
03E000
03E000
03E000
03E000
03E000
03E000
03E000
03E000
03E000
03E000
03E000
03E000
03E000
03E000
03E000
03E000
03E000
03E000
03E000
03E000
03E000
03E000
03E000
03E000
03E000
03E000
03E000
03E000
03E000
03F000
3FFF00
3FFF00
ENDCHAR

STARTCHAR Imacron
ENCODING 207
SWIDTH 337 0
DWIDTH 17 0
BBX 17 41 0 0
BITMAP
3FFE00
3FFE00
000000
000000
000000
000000
000000
3FFF00
3FFF00
03E000
03E000
03E000
03E000
03E000
03E000
03E000
03E000
03E000
03E000
03E000
03E000
03E000
03E000
03E000
03E000
03E000
03E000
03E000
03E000
03E000
03E000
03E000
03E000
03E000
03E000
03E000
03E000
03E000
03F000
3FFF00
3FFF00
ENDCHAR

STARTCHAR Eth
ENCODING 208
SWIDTH 774 0
DWIDTH 39 0
BBX 39 34 0 0
BITMAP
3FFFFF8000
3FFFFFF000
07E003FC00
03E0007F00
03E0001F80
03E0000FC0
03E00007E0
03E00003E0
03E00003F0
03E00001F0
03E00001F0
03E00001F8
03E00000F8
03E00000F8
03E00000F8
03E00000F8
3FFFF800F8
3FFFF800F8
03E00000F8
03E00000F8
03E00000F8
03E00000F0
03E00001F0
03E00001E0
03E00003E0
03E00003C0
03E00007C0
03E0000F80
03E0001F00
03E0003E00
03E000FC00
03E007F000
0FFFFFC000
0FFFFC0000
ENDCHAR

STARTCHAR Ncommaaccent
ENCODING 209
SWIDTH 831 0
DWIDTH 42 0
BBX 42 46 0 -12
BITMAP
7FC00007FF80
7FE00007FF80
07F000007800
03F800003000
03F800003000
03FC00003000
037E00003000
033F00003000
031F80003000
031FC0003000
030FC0003000
0307E0003000
0303F0003000
0301F8003000
0300FC003000
03007E003000
03007E003000
03003F003000
03001F803000
03000FC03000
030007E03000
030003F03000
030003F83000
030001F83000
030000FC3000
0300007E3000
0300003F3000
0300001FB000
0300000FF000
03000007F000
03800003F000
07800003F000
7FF80001F000
7FF80000F800
000000000000
000000000000
000000000000
00000F000000
00000E000000
00001E000000
00001C000000
000018000000
000038000000
000030000000
000060000000
000040000000
ENDCHAR

STARTCHAR Omacron
ENCODING 210
SWIDTH 786 0
DWIDTH 39 0
BBX 40 43 0 -1
BITMAP
0007FFC000
0007FFC000
0000000000
0000000000
0000000000
0000000000
0000000000
0001FFC000
000FFFF800
003E01FE00
00F0003F00
01E0001F80
03C0000FC0
07800007E0
0F000003F0
1F000001F0
1E000001F8
3E000000F8
3E000000F8
3C000000FC
3C0000007C
7C0000007C
7C0000007C
7C0000007C
7C0000007C
7C0000007C
7C0000007C
7C0000007C
7E0000007C
7E00000078
3E000000F8
3E000000F8
3F000000F0
1F000000F0
1F800001E0
0FC00001C0
0FC0000380
07E0000780
03F8000E00
01FC003C00
007F80F800
001FFFE000
0003FE0000
ENDCHAR

STARTCHAR Kcommaaccent
ENCODING 211
SWIDTH 726 0
DWIDTH 36 0
BBX 38 46 0 -12
BITMAP
3FFF003FE0
3FFF003FE0
03E0003C00
03E0007800
03E000F000
03E001C000
03E0038000
03E0070000
03E00E0000
03E01C0000
03E0380000
03E0700000
03E0E00000
03E3800000
03E7000000
03EF000000
03FF800000
03FFC00000
03E7E00000
03E3F00000
03E1F80000
03E0FE0000
03E07F0000
03E03F8000
03E01FC000
03E00FE000
03E007F000
03E003F800
03E001FC00
03E0007E00
03E0003F80
03E0001FC0
3FFF000FF0
3FFF0007F0
0000000000
0000000000
0000000000
0000780000
0000700000
0000700000
0000E00000
0000E00000
0000C00000
0001800000
0003000000
0002000000
ENDCHAR

STARTCHAR Ocircumflex
ENCODING 212
SWIDTH 786 0
DWIDTH 39 0
BBX 40 46 0 -1
BITMAP
0000380000
00007C0000
0000FE0000
0000EE0000
0001C70000
0003838000
000701C000
0006004000
0000000000
0000000000
0001FFC000
000FFFF800
003E01FE00
00F0003F00
01E0001F80
03C0000FC0
07800007E0
0F000003F0
1F000001F0
1E000001F8
3E000000F8
3E000000F8
3C000000FC
3C0000007C
7C0000007C
7C0000007C
7C0000007C
7C0000007C
7C0000007C
7C0000007C
7C0000007C
7E0000007C
7E00000078
3E000000F8
3E000000F8
3F000000F0
1F000000F0
1F800001E0
0FC00001C0
0FC0000380
07E0000780
03F8000E00
01FC003C00
007F80F800
001FFFE000
0003FE0000
ENDCHAR

STARTCHAR Otilde
ENCODING 213
SWIDTH 786 0
DWIDTH 39 0
BBX 40 44 0 -1
BITMAP
0001C01000
0007F83000
000FFFE000
00181FC000
0010038000
0000000000
0000000000
0000000000
0001FFC000
000FFFF800
003E01FE00
00F0003F00
01E0001F80
03C0000FC0
07800007E0
0F000003F0
1F000001F0
1E000001F8
3E000000F8
3E000000F8
3C000000FC
3C0000007C
7C0000007C
7C0000007C
7C0000007C
7C0000007C
7C0000007C
7C0000007C
7C0000007C
7E0000007C
7E00000078
3E000000F8
3E000000F8
3F000000F0
1F000000F0
1F800001E0
0FC00001C0
0FC0000380
07E0000780
03F8000E00
01FC003C00
007F80F800
001FFFE000
0003FE0000
ENDCHAR

STARTCHAR Odieresis
ENCODING 214
SWIDTH 786 0
DWIDTH 39 0
BBX 40 43 0 -1
BITMAP
000701C000
000F83E000
000F83E000
000F83E000
000701C000
0000000000
0000000000
0001FFC000
000FFFF800
007E01FE00
00F8007F00
01E0001F80
03C0000FC0
07800007E0
0F000003F0
1F000001F0
1E000001F8
3E000001F8
3E000000F8
3C000000FC
3C000000FC
7C0000007C
7C0000007C
7C0000007C
7C0000007C
7C0000007C
7C0000007C
7C0000007C
7E0000007C
7E00000078
3E000000F8
3F000000F8
3F000000F0
1F000001F0
1F800001E0
0FC00003C0
0FC0000380
07E0000780
03F8000E00
01FC003C00
007F81F000
001FFFC000
0003FE0000
ENDCHAR

STARTCHAR multiply
ENCODING 215
SWIDTH 606 0
DWIDTH 30 0
BBX 24 21 3 7
BITMAP
000008
18001C
3C003E
1E007C
0F00F8
0781F0
03C3E0
01E7C0
00FF80
007F00
003E00
007E00
00FF00
01FF80
03E7C0
07C3E0
0F81F0
1F00F8
3E007C
3C001C
180008
ENDCHAR

STARTCHAR Oslash
ENCODING 216
SWIDTH 833 0
DWIDTH 42 0
BBX 40 37 1 -2
BITMAP
0001FF8018
000FFFF838
007E01FE70
00F0003FE0
01E0001FC0
03C0000FC0
07800007E0
0F00000FF0
1F00001DF0
1E000039F8
3E000070F8
3E0000E0F8
3C0001C0FC
3C0001807C
7C0003807C
7C0007007C
7C000E007C
7C001C007C
7C0038007C
7C0070007C
7C00E0007C
7E01C0007C
7E03800078
3E030000F8
3F070000F8
3F0E0000F0
1F1C0000F0
1FB80001E0
0FF00001C0
07E0000380
07E0000780
03F8000E00
07FC003C00
0E7F80F000
1C1FFFC000
1803FE0000
3000000000
ENDCHAR

STARTCHAR Uogonek
ENCODING 217
SWIDTH 778 0
DWIDTH 39 0
BBX 39 45 0 -11
BITMAP
3FFF003FFC
3FFF003FFC
03E00003C0
03E00001C0
03E0000180
03E0000180
03E0000180
03E0000180
03E0000180
03E0000180
03E0000180
03E0000180
03E0000180
03E0000180
03E0000180
03E0000180
03E0000180
03E0000180
03E0000180
03E0000180
03E0000180
03E0000180
03E0000180
03E0000180
03E0000180
03E0000180
03E0000380
01E0000300
01F0000700
01F8000700
00FC001E00
007F80FC00
003FFFF800
000FFFE000
0001FF8000
0000060000
00000C0000
0000180000
0000380000
0000380000
0000780000
00007C6000
00003FC000
00003F8000
00000E0000
ENDCHAR

STARTCHAR Uacute
ENCODING 218
SWIDTH 778 0
DWIDTH 39 0
BBX 40 45 -1 -1
BITMAP
000001C000
000003C000
000007C000
00000F8000
00001E0000
0000380000
0000600000
0000C00000
0000000000
0000000000
3FFF001FFE
3FFF001FFE
03E00001E0
03E00000E0
03E00000C0
03E00000C0
03E00000C0
03E00000C0
03E00000C0
03E00000C0
03E00000C0
03E00000C0
03E00000C0
03E00000C0
03E00000C0
03E00000C0
03E00000C0
03E00000C0
03E00000C0
03E00000C0
03E00000C0
03E00000C0
03E00000C0
03E00000C0
03E00000C0
03E00000C0
03E00001C0
01F0000180
01F0000380
01F8000780
00FC000F00
007F807E00
003FFFFC00
000FFFF000
0001FF8000
ENDCHAR

STARTCHAR Ucircumflex
ENCODING 219
SWIDTH 778 0
DWIDTH 39 0
BBX 40 45 -1 -1
BITMAP
00003C0000
00003E0000
00007F0000
0000E70000
0001C38000
000181C000
000300E000
0006006000
0000000000
0000000000
3FFF001FFE
3FFF001FFE
03E00001E0
03E00000E0
03E00000C0
03E00000C0
03E00000C0
03E00000C0
03E00000C0
03E00000C0
03E00000C0
03E00000C0
03E00000C0
03E00000C0
03E00000C0
03E00000C0
03E00000C0
03E00000C0
03E00000C0
03E00000C0
03E00000C0
03E00000C0
03E00000C0
03E00000C0
03E00000C0
03E00000C0
03E00001C0
01F0000180
01F0000380
01F8000780
00FC000F00
007F807E00
003FFFFC00
000FFFF000
0001FF8000
ENDCHAR

STARTCHAR Udieresis
ENCODING 220
SWIDTH 778 0
DWIDTH 39 0
BBX 40 42 -1 -1
BITMAP
000700E000
000F81F000
000F81F000
000F81F000
000700E000
0000000000
0000000000
3FFF001FFE
3FFF001FFE
03E00001E0
03E00000E0
03E00000C0
03E00000C0
03E00000C0
03E00000C0
03E00000C0
03E00000C0
03E00000C0
03E00000C0
03E00000C0
03E00000C0
03E00000C0
03E00000C0
03E00000C0
03E00000C0
03E00000C0
03E00000C0
03E00000C0
03E00000C0
03E00000C0
03E00000C0
03E00000C0
03E00001C0
03E00001C0
01F0000180
01F0000380
01F8000780
00FC000F00
007F807E00
003FFFFC00
000FFFF000
0001FF8000
ENDCHAR

STARTCHAR Utilde
ENCODING 221
SWIDTH 778 0
DWIDTH 39 0
BBX 40 44 -1 -1
BITMAP
0001E00800
0003FC1800
0007FFF000
000C1FF000
000803C000
0000000000
0000000000
0000000000
0000000000
3FFF001FFE
3FFF001FFE
03E00001E0
03E00000E0
03E00000C0
03E00000C0
03E00000C0
03E00000C0
03E00000C0
03E00000C0
03E00000C0
03E00000C0
03E00000C0
03E00000C0
03E00000C0
03E00000C0
03E00000C0
03E00000C0
03E00000C0
03E00000C0
03E00000C0
03E00000C0
03E00000C0
03E00000C0
03E00000C0
03E00000C0
03E00001C0
01F0000180
01F0000380
01F8000780
00FC000F00
007F807E00
003FFFFC00
000FFFF000
0001FF8000
ENDCHAR

STARTCHAR Umacron
ENCODING 222
SWIDTH 778 0
DWIDTH 39 0
BBX 40 42 -1 -1
BITMAP
0003FFE000
0003FFE000
0000000000
0000000000
0000000000
0000000000
0000000000
3FFF001FFE
3FFF001FFE
03E00001E0
03E00000E0
03E00000C0
03E00000C0
03E00000C0
03E00000C0
03E00000C0
03E00000C0
03E00000C0
03E00000C0
03E00000C0
03E00000C0
03E00000C0
03E00000C0
03E00000C0
03E00000C0
03E00000C0
03E00000C0
03E00000C0
03E00000C0
03E00000C0
03E00000C0
03E00000C0
03E00000C0
03E00001C0
01F0000180
01F0000380
01F8000780
00FC000F00
007F807E00
003FFFFC00
000FFFF000
0001FF8000
ENDCHAR

STARTCHAR germandbls
ENCODING 223
SWIDTH 556 0
DWIDTH 28 0
BBX 28 37 0 -1
BITMAP
0003F000
000FFC00
00181E00
00700F00
00E00700
01C00780
01C00380
03C00380
03800380
07800380
07800380
07800300
07800300
07801F00
07807F00
1F807E00
3F808200
07818000
07838000
07838000
0783E000
0783F000
0781FC00
0780FF00
07807F80
07803F80
07800FC0
078007C0
078003C0
078001C0
078301C0
078301C0
07830180
07C70300
7FFF8600
7FFFFC00
0001F000
ENDCHAR

STARTCHAR amacron
ENCODING 224
SWIDTH 500 0
DWIDTH 25 0
BBX 26 32 0 -1
BITMAP
01FFF000
01FFF000
00000000
00000000
00000000
00000000
00000000
003F0000
00FFC000
03FFE000
0E03F000
0C00F000
0C00F800
08007800
00007800
00007800
00007800
001FF800
01FE7800
07E07800
0F807800
1E007800
1E007800
3C007800
3C007800
3C00F800
3E01F800
3E037800
3F0E7800
1FFC7C00
0FF07F80
03E00000
ENDCHAR

STARTCHAR aacute
ENCODING 225
SWIDTH 500 0
DWIDTH 25 0
BBX 26 35 0 -1
BITMAP
00006000
0000F000
0001E000
0003C000
000F8000
001E0000
00380000
00600000
00000000
00000000
003E0000
00FFC000
03FFE000
0E03F000
0C00F000
0C00F800
08007800
00007800
00007800
00007800
001FF800
01FE7800
07E07800
0F807800
1E007800
1E007800
3C007800
3C007800
3C00F800
3E01F800
3E037800
3F0E7800
1FFC7C00
0FF07F80
03E00000
ENDCHAR

STARTCHAR acircumflex
ENCODING 226
SWIDTH 500 0
DWIDTH 25 0
BBX 26 35 0 -1
BITMAP
000E0000
001F0000
003F0000
007B8000
0071C000
00E0E000
01806000
03003000
00000000
00000000
003E0000
00FFC000
03FFE000
0E03F000
0C00F000
0C00F800
08007800
00007800
00007800
00007800
001FF800
01FE7800
07E07800
0F807800
1E007800
1E007800
3C007800
3C007800
3C00F800
3E01F800
3E037800
3F0E7800
1FFC7C00
0FF07F80
03E00000
ENDCHAR

STARTCHAR atilde
ENCODING 227
SWIDTH 500 0
DWIDTH 25 0
BBX 26 33 0 -1
BITMAP
00F00400
03FE0C00
07FFF800
040FF000
0C01E000
00000000
00000000
00000000
003E0000
00FFC000
03FFE000
0E03F000
0C00F000
0C00F800
08007800
00007800
00007800
00007800
001FF800
01FE7800
07E07800
0F807800
1E007800
1E007800
3C007800
3C007800
3C00F800
3E01F800
3E037800
3F0E7800
1FFC7C00
0FF07F80
03E00000
ENDCHAR

STARTCHAR adieresis
ENCODING 228
SWIDTH 500 0
DWIDTH 25 0
BBX 26 32 0 -1
BITMAP
03807000
07C0F800
07C0F800
07C0F800
03807000
00000000
00000000
003E0000
00FFC000
03FFE000
0F03F000
0E00F000
0C00F800
0C007800
00007800
00007800
00007800
001FF800
00FE7800
03E07800
0F807800
1E007800
1E007800
3C007800
3C007800
3C00F800
3E01F800
3E037800
3F0E7800
1FFC7C00
0FF07F80
03C00000
ENDCHAR

STARTCHAR aring
ENCODING 229
SWIDTH 500 0
DWIDTH 25 0
BBX 26 37 0 -1
BITMAP
001E0000
003F0000
00618000
00C0C000
00C0C000
00C0C000
00C0C000
00618000
003F0000
001E0000
00000000
00000000
001E0000
00FFC000
03FFE000
0E03F000
0C00F000
0C00F800
08007800
00007800
00007800
00007800
001FF800
01FE7800
07E07800
0F807800
1E007800
1E007800
3C007800
3C007800
3C00F800
3E01F800
3E037800
3F0E7800
1FFC7C00
0FF07F80
03C00000
ENDCHAR

STARTCHAR ae
ENCODING 230
SWIDTH 758 0
DWIDTH 38 0
BBX 39 25 -1 -1
BITMAP
003E007E00
00FFC3FF80
03FFE703E0
0E03FE01F0
0C01FC00F0
0C00F800F8
0800F80078
0000F80078
0000780078
0000780078
000FFFFFF8
01FFFFFFE0
07F0780000
0F80780000
1E00780000
3E00780000
3C00780000
3C007C0000
3C00FC0000
3E01BE0000
3E033F0010
1F8E1FC070
1FFC0FFFE0
0FF803FF80
03E0007C00
ENDCHAR

STARTCHAR iogonek
ENCODING 231
SWIDTH 291 0
DWIDTH 15 0
BBX 15 45 0 -11
BITMAP
0180
07C0
07E0
07E0
03C0
0180
0000
0000
0000
0000
0000
00C0
0FC0
3FC0
07C0
03C0
03C0
03C0
03C0
03C0
03C0
03C0
03C0
03C0
03C0
03C0
03C0
03C0
03C0
03C0
03C0
03C0
1FF8
3FFC
00C0
0380
0700
0E00
0E00
0E00
1E00
1F18
0FF0
0FE0
0380
ENDCHAR

STARTCHAR ccaron
ENCODING 232
SWIDTH 444 0
DWIDTH 22 0
BBX 23 35 0 -1
BITMAP
0C0060
0600C0
030180
01C300
01E700
00FE00
007C00
003C00
000000
000000
000FC0
003FF8
00FFF8
03C078
070038
0E0018
1E0018
1E0018
1C0000
3C0000
3C0000
3C0000
3C0000
3C0000
3E0000
3E0000
3E0000
3F0000
1F0000
1F8000
0FC000
07F018
03FFF8
00FFE0
001F00
ENDCHAR

STARTCHAR eacute
ENCODING 233
SWIDTH 479 0
DWIDTH 24 0
BBX 24 35 0 -1
BITMAP
0000C0
0003C0
0007C0
000F80
001E00
003C00
007000
00C000
000000
000000
001F80
00FFE0
03C1F0
070078
0F007C
1E003C
1E003C
1E003E
3C003E
3C003E
3FFFFE
3FFFF8
3C0000
3E0000
3E0000
3E0000
3E0000
3F0000
1F0000
1F8000
0FC004
07F01C
03FFF8
01FFE0
003F00
ENDCHAR

STARTCHAR eogonek
ENCODING 234
SWIDTH 479 0
DWIDTH 24 0
BBX 23 35 1 -11
BITMAP
003F00
01FFC0
0381E0
0F00F0
1E00F8
1C0078
3C0078
3C007C
3C007C
7C007C
7FFFFC
7FFFF0
7C0000
7C0000
7C0000
7C0000
3C0000
3E0000
3E0000
1F0000
1F8008
0FE038
07FFF0
01FFC0
003F00
000E00
001C00
003800
003800
003800
007800
007C60
003FC0
003F80
000E00
ENDCHAR

STARTCHAR edieresis
ENCODING 235
SWIDTH 479 0
DWIDTH 24 0
BBX 24 32 0 -1
BITMAP
0700E0
0F81F0
0F81F0
0F81F0
0700E0
000000
000000
003F80
00FFE0
0381F0
0700F8
0E007C
1E003C
1C003C
3C003E
3C003E
3C003E
7FFFFE
7FFFF8
7C0000
7C0000
7C0000
3C0000
3E0000
3E0000
3F0000
1F0000
0FC004
0FE01C
03FFF8
01FFE0
003E00
ENDCHAR

STARTCHAR edotaccent
ENCODING 236
SWIDTH 479 0
DWIDTH 24 0
BBX 24 32 0 -1
BITMAP
001C00
003E00
003E00
003E00
001C00
000000
000000
001F80
00FFE0
01C1F0
078078
0F007C
0E003C
1E003C
1E003E
3E003E
3E003E
3FFFFE
3FFFF8
3E0000
3E0000
3E0000
3E0000
3E0000
1F0000
1F0000
0F8000
0FC004
07F01C
03FFF8
00FFE0
003F00
ENDCHAR

STARTCHAR iacute
ENCODING 237
SWIDTH 287 0
DWIDTH 14 0
BBX 16 33 -1 0
BITMAP
001C
003C
0078
00F0
01E0
0380
0600
0800
0000
0000
00C0
0FC0
3FC0
07C0
03C0
03C0
03C0
03C0
03C0
03C0
03C0
03C0
03C0
03C0
03C0
03C0
03C0
03C0
03C0
03C0
03C0
1FF8
3FFC
ENDCHAR

STARTCHAR icircumflex
ENCODING 238
SWIDTH 287 0
DWIDTH 14 0
BBX 18 33 -1 0
BITMAP
01E000
03E000
03F000
077800
0E1C00
1C0C00
180600
300300
000000
000000
006000
07E000
1FE000
03E000
01E000
01E000
01E000
01E000
01E000
01E000
01E000
01E000
01E000
01E000
01E000
01E000
01E000
01E000
01E000
01E000
01E000
0FFC00
1FFE00
ENDCHAR

STARTCHAR imacron
ENCODING 239
SWIDTH 287 0
DWIDTH 14 0
BBX 16 31 0 0
BITMAP
3FFC
3FFC
0000
0000
0000
0000
0000
00C0
0FC0
3FC0
07C0
03C0
03C0
03C0
03C0
03C0
03C0
03C0
03C0
03C0
03C0
03C0
03C0
03C0
03C0
03C0
03C0
03C0
03C0
3FF8
3FFC
ENDCHAR

STARTCHAR dcroat
ENCODING 240
SWIDTH 611 0
DWIDTH 31 0
BBX 31 38 0 -1
BITMAP
000000C0
00003FC0
00007FC0
00000F80
00000780
00000780
00000780
0007FFF8
0007FFF8
00000780
00000780
00000780
00000780
000FC780
003FFF80
00E0FF80
03803F80
07000F80
0F000780
1E000780
1E000780
1E000780
3C000780
3C000780
3C000780
3C000780
3C000780
3E000780
3E000780
3E000780
3E000F80
1F000F80
1F801F80
0FC03780
0FF0E780
07FFC7C0
01FF87F8
007E07F8
ENDCHAR

STARTCHAR ncommaaccent
ENCODING 241
SWIDTH 582 0
DWIDTH 29 0
BBX 32 36 -1 -12
BITMAP
00C1FC00
0FC3FF00
3FCFFF80
07DC1F80
03F00FC0
03E007C0
03C003C0
03C003C0
03C003C0
03C003C0
03C003C0
03C003C0
03C003C0
03C003C0
03C003C0
03C003C0
03C003C0
03C003C0
03C003C0
03C003C0
03C003C0
03C003E0
3FFC03FC
3FFC03FC
00000000
00000000
00000000
0001E000
0001C000
0001C000
00038000
00038000
00070000
00060000
000C0000
00080000
ENDCHAR

STARTCHAR omacron
ENCODING 242
SWIDTH 546 0
DWIDTH 27 0
BBX 26 32 1 -1
BITMAP
01FFE000
01FFE000
00000000
00000000
00000000
00000000
00000000
003F8000
00FFE000
03C1F800
07007C00
0E003E00
1E003E00
1C001F00
3C001F00
3C000F80
3C000F80
7C000F80
7C000F80
7C000F80
7C000F80
7C000F80
7C000F00
3E000F00
3E000F00
3E000E00
1F001E00
0F801C00
0FC03800
07E0F000
01FFC000
007E0000
ENDCHAR

STARTCHAR kcommaaccent
ENCODING 243
SWIDTH 556 0
DWIDTH 28 0
BBX 30 48 -1 -12
BITMAP
00C00000
1FC00000
3FC00000
07C00000
03C00000
03C00000
03C00000
03C00000
03C00000
03C00000
03C00000
03C00000
03C00000
03C007C0
03C00FC0
03C01E00
03C03C00
03C07000
03C0E000
03C1C000
03C70000
03CE0000
03DE0000
03FF0000
03DF8000
03CFC000
03C7E000
03C3F000
03C0F800
03C07C00
03C03F00
03C01F80
03C00FC0
03E007F0
3FFC03F0
3FFC01C0
00000000
00000000
00000000
0003C000
00038000
00078000
00070000
00060000
000E0000
000C0000
00180000
00100000
ENDCHAR

STARTCHAR ocircumflex
ENCODING 244
SWIDTH 546 0
DWIDTH 27 0
BBX 26 35 1 -1
BITMAP
000E0000
001E0000
003F0000
00778000
0061C000
00C0C000
01806000
03003000
00000000
00000000
003F8000
00FFE000
03C1F800
07007C00
0E003E00
1E003E00
1C001F00
3C001F00
3C000F80
3C000F80
7C000F80
7C000F80
7C000F80
7C000F80
7C000F80
7C000F00
3E000F00
3E000F00
3E000E00
1F001E00
0F801C00
0FC03800
07E0F000
01FFC000
007E0000
ENDCHAR

STARTCHAR otilde
ENCODING 245
SWIDTH 546 0
DWIDTH 27 0
BBX 26 33 1 -1
BITMAP
00F00C00
03FC1800
07FFF800
040FF000
0C01C000
00000000
00000000
00000000
003F8000
00FFE000
03C1F800
07007C00
0E003E00
1E003E00
1C001F00
3C001F00
3C000F80
3C000F80
7C000F80
7C000F80
7C000F80
7C000F80
7C000F80
7C000F00
3E000F00
3E000F00
3E000E00
1F001E00
0F801C00
0FC03800
07E0F000
01FFC000
007E0000
ENDCHAR

STARTCHAR odieresis
ENCODING 246
SWIDTH 546 0
DWIDTH 27 0
BBX 26 32 1 -1
BITMAP
03807000
07C0F800
07C0F800
07C0F800
03807000
00000000
00000000
003F8000
00FFE000
03C1F800
07007C00
0E003E00
1E003E00
1C001F00
3C001F00
3C000F80
3C000F80
7C000F80
7C000F80
7C000F80
7C000F80
7C000F80
7C000F00
3E000F00
3E000F00
3E000E00
1F001E00
0F801C00
0FC03800
07E0F000
01FFC000
007E0000
ENDCHAR

STARTCHAR divide
ENCODING 247
SWIDTH 606 0
DWIDTH 30 0
BBX 28 21 1 7
BITMAP
00060000
000F0000
001F8000
001F8000
000F0000
00060000
00000000
00000000
00000000
3FFFFFC0
3FFFFFC0
3FFFFFC0
00000000
00000000
00000000
00060000
000F0000
001F8000
001F8000
000F0000
00060000
ENDCHAR

STARTCHAR oslash
ENCODING 248
SWIDTH 556 0
DWIDTH 28 0
BBX 27 27 0 -2
BITMAP
00000080
001FC180
007FF300
01E0FF00
03803E00
07001F00
0F003F00
0E003F80
1E006F80
1E00C7C0
1E01C7C0
3E0387C0
3E0707C0
3E0E07C0
3E0C07C0
3E1807C0
3E300780
1F700780
1FE00780
1FC00700
0F800F00
0FC00E00
07E01C00
0FF07800
1CFFE000
383F0000
10000000
ENDCHAR

STARTCHAR uogonek
ENCODING 249
SWIDTH 603 0
DWIDTH 30 0
BBX 32 35 -1 -11
BITMAP
00E000C0
0FE00FC0
3FE03FC0
03C007C0
03C003C0
03C003C0
03C003C0
03C003C0
03C003C0
03C003C0
03C003C0
03C003C0
03C003C0
03C003C0
03C003C0
03C003C0
03C007C0
03C007C0
03C007C0
03E00FC0
03E01FC0
01F87BC0
01FFF3E0
00FFC3FC
003F00E0
00000180
00000700
00000600
00000E00
00001E00
00001E00
00001F18
00000FF0
00000FE0
00000380
ENDCHAR

STARTCHAR uacute
ENCODING 250
SWIDTH 603 0
DWIDTH 30 0
BBX 32 35 -1 -1
BITMAP
00001C00
00003C00
00007C00
0000F000
0001E000
00038000
00060000
000C0000
00000000
00000000
00000040
00E007C0
0FE03FC0
3FC007C0
03C003C0
03C003C0
03C003C0
03C003C0
03C003C0
03C003C0
03C003C0
03C003C0
03C003C0
03C003C0
03C003C0
03C003C0
03C003C0
03C007C0
03C007C0
03E00FC0
03E01FC0
03F83BC0
01FFF3FC
00FFC3FC
003F0000
ENDCHAR

STARTCHAR ucircumflex
ENCODING 251
SWIDTH 603 0
DWIDTH 30 0
BBX 32 34 -1 -1
BITMAP
0003C000
0003E000
0007E000
000E7000
001C3800
00181C00
00300C00
00600600
00000000
00000040
00E007C0
0FE03FC0
3FC007C0
03C003C0
03C003C0
03C003C0
03C003C0
03C003C0
03C003C0
03C003C0
03C003C0
03C003C0
03C003C0
03C003C0
03C003C0
03C003C0
03C007C0
03C007C0
03E00FC0
03E01FC0
03F83BC0
01FFF3FC
00FFC3FC
003F0000
ENDCHAR

STARTCHAR udieresis
ENCODING 252
SWIDTH 603 0
DWIDTH 30 0
BBX 32 32 -1 -1
BITMAP
00700E00
00F81F00
00F81F00
00F81F00
00700E00
00000000
00000000
00000040
00E007C0
0FE03FC0
3FC007C0
03C003C0
03C003C0
03C003C0
03C003C0
03C003C0
03C003C0
03C003C0
03C003C0
03C003C0
03C003C0
03C003C0
03C003C0
03C003C0
03C007C0
03C007C0
03E00FC0
03E01FC0
03F83BC0
01FFF3FC
00FFC3FC
003F0000
ENDCHAR

STARTCHAR utilde
ENCODING 253
SWIDTH 603 0
DWIDTH 30 0
BBX 32 33 -1 -1
BITMAP
001C0180
007F8100
00FFFF00
0081FE00
01803800
00000000
00000000
00000000
00000040
00E007C0
0FE03FC0
3FC007C0
03C003C0
03C003C0
03C003C0
03C003C0
03C003C0
03C003C0
03C003C0
03C003C0
03C003C0
03C003C0
03C003C0
03C003C0
03C003C0
03C007C0
03C007C0
03E00FC0
03E01FC0
03F83BC0
01FFF3FC
00FFC3FC
003F0000
ENDCHAR

STARTCHAR umacron
ENCODING 254
SWIDTH 603 0
DWIDTH 30 0
BBX 32 32 -1 -1
BITMAP
003FFC00
003FFC00
00000000
00000000
00000000
00000000
00000000
00000040
00E007C0
0FE03FC0
3FC007C0
03C003C0
03C003C0
03C003C0
03C003C0
03C003C0
03C003C0
03C003C0
03C003C0
03C003C0
03C003C0
03C003C0
03C003C0
03C003C0
03C007C0
03C007C0
03E00FC0
03E01FC0
03F83BC0
01FFF3FC
00FFC3FC
003F0000
ENDCHAR

STARTCHAR dotaccent
ENCODING 255
SWIDTH 250 0
DWIDTH 13 0
BBX 9 5 2 26
BITMAP
1C00
3E00
3E00
3E00
1C00
ENDCHAR
ENDFONT
